<?xml version="1.0" encoding="utf-8"?>
<!-- Generator: Adobe Illustrator 23.0.1, SVG Export Plug-In . SVG Version: 6.00 Build 0)  -->
<svg version="1.1" id="Camada_1" xmlns="http://www.w3.org/2000/svg" xmlns:xlink="http://www.w3.org/1999/xlink" x="0px" y="0px"
	 viewBox="0 0 157 156" style="enable-background:new 0 0 157 156;" xml:space="preserve">
<style type="text/css">
	.st0{fill:#828282;}
</style>
<title>Ativo 14</title>
<g>
	<g>
		<g id="Camada_1-2">
			
				<image style="overflow:visible;opacity:0.75;enable-background:new    ;" width="157" height="156" xlink:href="5D98F4BD.png"  transform="matrix(1 0 0 1 0 -2.018494e-05)">
			</image>
			<path class="st0" d="M13,48.2v-1.5c0-11.9,0-23.7,0-35.6C13,8.5,13.5,8,16.1,8h62.4c2.6,0,3.1,0.5,3.1,3.1v13h1.6
				c9.2,0,18.4,0,27.7,0c2.5,0,3,0.5,3,3.1v37.2c0.3,0,0.5,0.1,0.7,0.1c3.1,0.1,3.4,0.4,3.4,3.4c0,12.2,0,24.5,0,36.7
				c0,0.8,0.4,1.6,0.9,2.2c4.6,4.7,9.3,9.3,13.9,14c1.7,1.7,1.7,2.5,0,4.2c-2.2,2.3-4.5,4.5-6.7,6.7c-1.7,1.7-2.6,1.7-4.3,0
				s-3.8-3.7-5.6-5.6c-0.7-0.8-1.7-1.2-2.8-1.2c-33.7,0-67.3,0-101,0c-0.5,0-1.1,0-1.6,0C9.8,124.8,9,124,9,123c0-0.5,0-1,0-1.6
				V52.8C9,48.7,9,48.7,13,48.2z M13.1,120.8h97.7c-0.5-0.5-0.8-0.8-1.1-1.2c-7.8-7.8-15.5-15.6-23.3-23.4c-0.6-0.8-1.7-1-2.5-0.5
				c-14,6.9-30.8,1.1-37.7-12.9c-4.2-8.6-3.8-18.8,1.2-27c0.7-1.2,1.5-2.3,2.3-3.5H13.1V120.8z M53.2,48.8c2.3-1.3,4.6-2.8,7-4
				c0.9-0.3,1.4-1.1,1.3-2c-0.1-5.3,0-10.6,0-15.8c0-2.2,0.6-2.8,2.9-2.8c2.7,0,5.5,0,8.2,0h5v-12H17.1v36.2h1.6c10.5,0,21,0,31.5,0
				C51.3,48.4,52.2,48.6,53.2,48.8z M65.6,28.2v14.6c0.4,0,0.7,0,1-0.1c13.9-2.5,27.5,5.6,31.8,19c0.9,2.7,0.9,2.7,3.7,2.7h7.7V28.2
				H65.6z M95.7,70.5c0-13.4-10.8-24.2-24.2-24.2S47.3,57.2,47.3,70.5s10.8,24.2,24.2,24.2l0,0C84.9,94.7,95.7,83.9,95.7,70.5z
				 M99.7,68.6c0,0.5,0,0.9,0,1.4c0.2,4.6-0.9,9.1-3,13.2c-0.5,0.7-0.3,1.7,0.4,2.2l0,0c5.2,5.1,10.4,10.3,15.6,15.5
				c0.3,0.3,0.6,0.5,1.1,0.9V68.6H99.7z M94,88.3L89.4,93l22.4,22.6l4.9-4.8L94,88.3z M115.1,118.9l8.8,8.8l4.7-4.7l-8.7-8.8
				L115.1,118.9z"/>
			<path class="st0" d="M17,78.6c0-5.2,0-10.4,0-15.5c0-1.9,0.7-2.6,2.6-2.6c2.4,0,4.7,0,7,0c1.7,0,2.5,0.7,2.5,2.5
				c0,10.5,0,20.9,0,31.4c0,1.7-0.7,2.4-2.5,2.5c-2.4,0-4.8,0-7.2,0c-1.7,0-2.4-0.7-2.4-2.5C17,89,17,83.8,17,78.6z M25,64.6h-3.9
				v28H25V64.6z"/>
			<path class="st0" d="M23.1,100.8c1.3,0,2.6,0,3.9,0c1.1-0.1,2.1,0.7,2.2,1.8c0,0.1,0,0.3,0,0.4c0,2.6,0,5.2,0,7.8
				c0.1,1.1-0.8,2-1.9,2.1c-0.1,0-0.2,0-0.3,0c-2.6,0-5.2,0-7.8,0c-1.1,0.1-2.1-0.7-2.2-1.8c0-0.1,0-0.2,0-0.3c0-2.6,0-5.2,0-7.8
				c-0.1-1.1,0.7-2.1,1.8-2.2c0.1,0,0.2,0,0.3,0C20.5,100.7,21.8,100.8,23.1,100.8z M21.1,108.8H25V105h-3.9V108.8z"/>
			<path class="st0" d="M21.1,20v-3.9h52.3V20H21.1z"/>
			<path class="st0" d="M21.2,24.2h36.1v3.9H21.2V24.2z"/>
			<path class="st0" d="M21.2,32.3h36.1v3.9H21.2V32.3z"/>
			<path class="st0" d="M57.3,40.4v3.9H21.2v-3.9H57.3z"/>
			<path class="st0" d="M71.4,90.7c-11.1,0-20.1-9.1-20.1-20.3c0-11.1,9.1-20.1,20.3-20.1s20.1,9.1,20.1,20.3l0,0
				C91.6,81.8,82.5,90.7,71.4,90.7z M55.4,70.4c-0.1,8.9,7.1,16.2,16,16.3c8.9,0.1,16.2-7.1,16.3-16c0.1-8.9-7.1-16.2-16-16.3
				c-0.1,0-0.1,0-0.2,0C62.6,54.5,55.5,61.6,55.4,70.4L55.4,70.4z"/>
		</g>
	</g>
</g>
</svg>
