<?xml version="1.0" encoding="utf-8"?>
<!-- Generator: Adobe Illustrator 23.0.1, SVG Export Plug-In . SVG Version: 6.00 Build 0)  -->
<svg version="1.1" id="Camada_1" xmlns="http://www.w3.org/2000/svg" xmlns:xlink="http://www.w3.org/1999/xlink" x="0px" y="0px"
	 viewBox="0 0 64.6 52" style="enable-background:new 0 0 64.6 52;" xml:space="preserve">
<style type="text/css">
	.st0{fill:#898989;}
</style>
<path class="st0" d="M56.1,10.7H42.5V7.3c0-1.9-1.5-3.4-3.4-3.4H25.5c-1.9,0-3.4,1.5-3.4,3.4v3.4H8.5c-1.9,0-3.4,1.5-3.4,3.4v30.7
	c0,1.9,1.5,3.4,3.4,3.4h47.7c1.9,0,3.4-1.5,3.4-3.4V14.1C59.6,12.2,58,10.7,56.1,10.7z M25.5,7.3C25.5,7.3,25.5,7.3,25.5,7.3h13.6
	l0,0v3.4H25.5L25.5,7.3L25.5,7.3z M56.1,24.3h-6.8v5.1c0,0.9-0.8,1.7-1.7,1.7h-3.4c-0.9,0-1.7-0.8-1.7-1.7v-5.1H22.1v5.1
	c0,0.9-0.8,1.7-1.7,1.7H17c-0.9,0-1.7-0.8-1.7-1.7v-5.1H8.5v-3.4h47.7V24.3z"/>
</svg>
