<?xml version="1.0" encoding="utf-8"?>
<!-- Generator: Adobe Illustrator 23.0.1, SVG Export Plug-In . SVG Version: 6.00 Build 0)  -->
<svg version="1.1" id="Camada_1" xmlns="http://www.w3.org/2000/svg" xmlns:xlink="http://www.w3.org/1999/xlink" x="0px" y="0px"
	 viewBox="0 0 41 33" style="enable-background:new 0 0 41 33;" xml:space="preserve">
<style type="text/css">
	.st0{fill:#FFFFFF;}
</style>
<path class="st0" d="M37.53,5.37h-9.86V2.9c0-1.36-1.11-2.47-2.47-2.47h-9.86c-1.36,0-2.47,1.11-2.47,2.47v2.47H3.01
	c-1.36,0-2.47,1.11-2.47,2.47v22.19c0,1.36,1.11,2.47,2.47,2.47h34.52c1.36,0,2.47-1.11,2.47-2.47V7.83
	C40,6.48,38.89,5.37,37.53,5.37z M15.34,2.91C15.34,2.91,15.35,2.9,15.34,2.91l9.86,0c0,0,0,0,0,0v2.46h-9.86L15.34,2.91L15.34,2.91
	z M37.53,15.23H32.6v3.7c0,0.68-0.55,1.23-1.23,1.23H28.9c-0.68,0-1.23-0.55-1.23-1.23v-3.7H12.88v3.7c0,0.68-0.55,1.23-1.23,1.23
	H9.18c-0.68,0-1.23-0.55-1.23-1.23v-3.7H3.01v-2.47h34.52V15.23z"/>
</svg>
