<?xml version="1.0" encoding="utf-8"?>
<!-- Generator: Adobe Illustrator 23.0.1, SVG Export Plug-In . SVG Version: 6.00 Build 0)  -->
<svg version="1.1" id="Camada_1" xmlns="http://www.w3.org/2000/svg" xmlns:xlink="http://www.w3.org/1999/xlink" x="0px" y="0px"
	 viewBox="0 0 52 49" style="enable-background:new 0 0 52 49;" xml:space="preserve">
<style type="text/css">
	.st0{fill:#FFFFFF;}
</style>
<g>
	<path class="st0" d="M19.63,43.76c0,2.68-2.17,4.86-4.86,4.86s-4.86-2.17-4.86-4.86s2.17-4.86,4.86-4.86S19.63,41.08,19.63,43.76z"
		/>
	<path class="st0" d="M52,43.76c0,2.68-2.17,4.86-4.86,4.86s-4.86-2.17-4.86-4.86s2.17-4.86,4.86-4.86S52,41.08,52,43.76z"/>
	<path class="st0" d="M52,22.72V3.29H13.15c0-1.79-1.45-3.24-3.24-3.24H0.21v3.24h6.47l2.43,20.84c-1.48,1.19-2.43,3.01-2.43,5.05
		c0,3.58,2.9,6.47,6.47,6.47H52v-3.24H13.15c-1.79,0-3.24-1.45-3.24-3.24c0-0.01,0-0.02,0-0.03C9.92,29.16,52,22.72,52,22.72z"/>
</g>
</svg>
