<?xml version="1.0" encoding="utf-8"?>
<!-- Generator: Adobe Illustrator 23.0.1, SVG Export Plug-In . SVG Version: 6.00 Build 0)  -->
<svg version="1.1" id="Camada_1" xmlns="http://www.w3.org/2000/svg" xmlns:xlink="http://www.w3.org/1999/xlink" x="0px" y="0px"
	 viewBox="0 0 52 49" style="enable-background:new 0 0 52 49;" xml:space="preserve">
<style type="text/css">
	.st0{fill:#898989;}
</style>
<g>
	<path class="st0" d="M19.6,43.8c0,2.7-2.2,4.9-4.9,4.9s-4.9-2.2-4.9-4.9s2.2-4.9,4.9-4.9S19.6,41.1,19.6,43.8z"/>
	<path class="st0" d="M52,43.8c0,2.7-2.2,4.9-4.9,4.9s-4.9-2.2-4.9-4.9s2.2-4.9,4.9-4.9S52,41.1,52,43.8z"/>
	<path class="st0" d="M52,22.7V3.3H13.1c0-1.8-1.4-3.2-3.2-3.2H0.2v3.2h6.5l2.4,20.8c-1.5,1.2-2.4,3-2.4,5c0,3.6,2.9,6.5,6.5,6.5H52
		v-3.2H13.1c-1.8,0-3.2-1.5-3.2-3.2l0,0C9.9,29.2,52,22.7,52,22.7z"/>
</g>
</svg>
