<?xml version="1.0" encoding="utf-8"?>
<!-- Generator: Adobe Illustrator 23.0.1, SVG Export Plug-In . SVG Version: 6.00 Build 0)  -->
<svg version="1.1" id="Camada_1" xmlns="http://www.w3.org/2000/svg" xmlns:xlink="http://www.w3.org/1999/xlink" x="0px" y="0px"
	 viewBox="0 0 160 159" style="enable-background:new 0 0 160 159;" xml:space="preserve">
<style type="text/css">
	.st0{fill:#828282;}
</style>
<title>Ativo 11</title>
<g>
	<g>
		<g id="Camada_1-2">
			
				<image style="overflow:visible;opacity:0.75;enable-background:new    ;" width="160" height="159" xlink:href="DFAB4B20.png"  transform="matrix(1 0 0 1 0 -2.018494e-05)">
			</image>
			<path class="st0" d="M48.5,35H36.2c-0.1,0.4-0.1,0.8-0.1,1.3c0,3.5,0,7,0,10.5c-0.1,0.9,0.4,1.8,1.2,2.1
				c6.4,3.5,12.8,7.1,19.3,10.5c1.5,0.7,2.5,2.2,2.3,3.9c-0.1,6.2-0.1,12.4,0,18.6c0.1,1.3-0.6,2.5-1.7,3
				c-7.2,3.8-14.3,7.7-21.4,11.6c-1.1,0.7-2.5,0.7-3.7,0c-7.1-4-14.2-7.9-21.4-11.7c-1.2-0.5-1.9-1.7-1.7-3C9,75.4,9,69,9,62.6
				c-0.1-1.3,0.7-2.6,1.9-3.1c6.5-3.4,13.1-7,19.6-10.5c0.9-0.4,1.5-1.4,1.4-2.4c-0.1-4.3,0-8.6,0-12.9c0-2.4,0.6-3,3-3h13.6
				c0-2.5,0.1-4.9,0-7.3c-0.2-1.5,0.7-2.9,2.1-3.5c7-3.7,13.9-7.5,20.8-11.4c1.2-0.8,2.8-0.8,4.1,0c7,3.8,13.9,7.6,21,11.4
				c1.3,0.6,2.1,1.9,2,3.4c-0.1,2.4,0,4.7,0,7.3h13.7c2.3,0,2.9,0.6,2.9,2.9c0,4.3,0,8.7,0,13.1c-0.1,1,0.4,1.9,1.3,2.2
				c6.5,3.5,13,7.1,19.5,10.6c1.4,0.6,2.2,2,2,3.5c-0.1,6.2-0.1,12.4,0,18.7c0.1,1.4-0.7,2.8-2,3.3c-7.1,3.8-14.1,7.6-21.1,11.5
				c-1.2,0.7-2.6,0.7-3.8,0c-7.1-3.9-14.1-7.8-21.3-11.6c-1.1-0.5-1.9-1.7-1.7-2.9c0.1-6.4,0.1-12.8,0-19.2
				c-0.1-1.4,0.7-2.7,1.9-3.2c6.5-3.5,13-7.1,19.5-10.6c1-0.4,1.5-1.3,1.4-2.3c-0.1-3.8,0-7.7,0-11.6H98.4c0,2.4-0.1,4.8,0,7.1
				c0.1,1.5-0.7,2.9-2.1,3.5c-7,3.7-14,7.5-21,11.4c-1.2,0.7-2.6,0.7-3.8,0c-7-3.9-14-7.7-21.1-11.5c-1.3-0.6-2.1-1.9-2-3.4
				C48.6,39.8,48.5,37.5,48.5,35z M91.8,22.5c-0.2-0.2-0.4-0.4-0.7-0.6c-5.6-3.1-11.2-6.1-16.8-9.1c-0.7-0.2-1.4-0.2-2,0.1
				c-5.4,2.9-10.8,5.8-16.2,8.8c-0.4,0.2-0.7,0.5-1,0.7c6,3.3,11.7,6.4,17.5,9.5c0.5,0.2,1,0.2,1.5,0C80,28.9,85.8,25.8,91.8,22.5
				L91.8,22.5z M94.4,61.9c6.1,3.3,12,6.6,18,9.8c0.4,0.2,1.2-0.1,1.7-0.3c5.4-2.9,10.7-5.8,16.1-8.7c0.4-0.2,0.8-0.5,1.1-0.8
				l-16.3-9v4.7h-4.2V53L94.4,61.9z M52.5,61.9l-16.5-9v4.8h-4.1V53l-16.4,9c6.2,3.4,12,6.6,17.9,9.7c0.4,0.2,0.9,0.2,1.4,0
				C40.6,68.4,46.4,65.2,52.5,61.9L52.5,61.9z M54.8,65.4c-6.2,3.4-12.1,6.6-18,9.9c-0.4,0.4-0.6,1-0.6,1.5c0,3.4,0,6.8,0,10.2v4.6
				c6.3-3.4,12.2-6.6,18.1-9.9c0.4-0.3,0.6-0.8,0.6-1.2C54.8,75.6,54.8,70.7,54.8,65.4L54.8,65.4z M110.8,91.6c0-5.1,0-9.8,0-14.5
				c0.1-1-0.4-1.9-1.3-2.2c-5.3-2.8-10.6-5.7-15.9-8.6c-0.4-0.2-0.9-0.4-1.5-0.7c0.2,3.7,0.1,7.4-0.1,11.2c-0.4,3.7,0.9,5.5,4.2,7.1
				C101.1,86,105.7,88.8,110.8,91.6L110.8,91.6z M13.2,65.4c0,5.3,0,10.3,0.1,15.2c0,0.5,0.6,1.1,1.1,1.4c5.3,3,10.7,5.8,16,8.8
				c0.4,0.2,0.8,0.4,1.2,0.5c0.1-0.2,0.2-0.3,0.2-0.5c0-4.8,0-9.6,0-14.4c-0.1-0.5-0.3-0.9-0.7-1.2C25.3,72,19.4,68.8,13.2,65.4z
				 M133.7,65.4c-6.2,3.4-12.1,6.6-18,9.8c-0.5,0.4-0.7,1-0.7,1.7c-0.1,3.6,0,7.1,0,10.7v3.6c0.4,0,0.5,0.1,0.6,0
				c5.8-3.1,11.6-6.2,17.4-9.4c0.4-0.2,0.6-0.6,0.7-1C133.7,75.8,133.7,70.8,133.7,65.4z M52.7,34.9c0,2,0.1,3.8,0,5.7
				c-0.1,0.9,0.4,1.8,1.3,2.1c5.3,2.9,10.6,5.8,15.9,8.7c0.4,0.2,0.9,0.4,1.4,0.7c0.1-0.2,0.1-0.4,0.2-0.6c0-4.8,0-9.5,0-14.2
				c-0.1-0.7-0.5-1.2-1.1-1.6c-5.4-3.1-11-6.1-16.5-9.1c-0.3-0.1-0.7-0.3-1-0.4v4.6h3.9V35L52.7,34.9z M75.5,51.8
				c0.3,0,0.4,0.1,0.5,0c5.8-3.2,11.7-6.4,17.5-9.6c0.3-0.2,0.6-0.5,0.6-0.9c0.1-2.1,0-4.3,0-6.6h-4v-4.2H94V26
				c-6.1,3.3-12,6.5-17.8,9.8c-0.4,0.2-0.6,0.6-0.7,1C75.5,41.8,75.5,46.8,75.5,51.8L75.5,51.8z"/>
			<path class="st0" d="M36.1,109.6h12.4c0-2.2,0.1-4.4,0-6.6s0.7-3.3,2.5-4.3c7-3.7,13.9-7.5,20.8-11.3c1-0.6,2.2-0.6,3.2,0
				c7.2,3.9,14.4,7.8,21.6,11.7c1.2,0.5,1.8,1.7,1.7,3c-0.1,2,0,4.1,0,6.1c0,1,0.3,1.4,1.4,1.4c3.3,0,6.6,0,9.8,0
				c1,0,1.3-0.3,1.3-1.3c-0.1-1.9,0-3.7,0-5.6s1.2-1.4,2.2-1.4s2.1-0.3,2.1,1.4c-0.1,2.8,0,5.5,0,8.3c0,2-0.8,2.7-2.8,2.8
				c-4.1,0-8.1,0-12.2,0c-1.2,0-1.7,0.4-1.7,1.6c0.1,2,0,4.1,0,6.1c0.1,1.2-0.5,2.2-1.6,2.7c-7.2,3.9-14.5,7.9-21.7,11.9
				c-1.1,0.6-2.5,0.6-3.5-0.1c-7.2-4-14.3-7.9-21.5-11.8c-1-0.5-1.7-1.6-1.6-2.7c0-2.1,0-4.2,0-6.3c0-1.1-0.4-1.4-1.5-1.4
				c-4,0.1-8,0-12,0c-2.5,0-3.1-0.6-3.1-3.1s0.1-5.2,0-7.8c-0.1-1.6,0.8-1.6,1.9-1.6s2.4-0.4,2.3,1.5C36,105,36.1,107.2,36.1,109.6z
				 M55.2,101.3c0.2,0.2,0.4,0.4,0.7,0.6c5.5,3,11.1,6.1,16.7,9.1c0.7,0.2,1.5,0.2,2.1-0.2c5.1-2.8,10.2-5.5,15.3-8.3
				c0.5-0.3,1-0.6,1.8-1.1c-0.8-0.5-1.3-0.8-1.8-1.1c-5-2.7-10-5.5-15-8.3c-0.9-0.6-2.2-0.6-3.1,0c-4.5,2.5-9.1,5-13.7,7.5
				C57.3,100.1,56.3,100.6,55.2,101.3z M71.1,130.9c0.1-0.3,0.2-0.7,0.3-1c0-4.6,0.1-9.3,0-13.9c-0.2-0.7-0.6-1.3-1.2-1.6
				c-2.6-1.5-5.3-3-8-4.4l-9.5-5.2c0,1.6-0.1,2.8,0,4c0,0.3,0.6,0.7,1,0.8c0.7,0.1,1.4-0.1,2,0.1c0.4,0.1,0.8,0.4,1,0.8
				c0.6,2.7,0.1,3.3-2.5,3.3c-0.4,0-0.9,0.1-1.5,0.1c0,1.9,0.1,3.8,0,5.6c-0.1,0.9,0.4,1.8,1.3,2.1c3.8,2,7.5,4,11.2,6
				C67.1,128.8,69,129.8,71.1,130.9z M94.1,105.1c-0.3,0.1-0.5,0.1-0.8,0.2c-5.6,3.1-11.2,6.1-16.8,9.3c-0.6,0.4-1,1.1-1,1.9
				c-0.1,4.4,0,8.8,0,13.2c0,0.4,0.1,0.8,0.2,1.1c0.2,0,0.4-0.1,0.6-0.1c5.7-3.1,11.3-6.1,17-9.2c0.3-0.2,0.8-0.6,0.8-0.9
				c0.1-2.2,0-4.4,0-6.6l-4-0.2v-4.1H94L94.1,105.1z"/>
		</g>
	</g>
</g>
</svg>
