<?xml version="1.0" encoding="utf-8"?>
<!-- Generator: Adobe Illustrator 23.0.1, SVG Export Plug-In . SVG Version: 6.00 Build 0)  -->
<svg version="1.1" id="Camada_1" xmlns="http://www.w3.org/2000/svg" xmlns:xlink="http://www.w3.org/1999/xlink" x="0px" y="0px"
	 viewBox="0 0 115.3 104.1" style="enable-background:new 0 0 115.3 104.1;" xml:space="preserve">
<style type="text/css">
	.st0{fill:#828282;}
</style>
<g>
	
		<image style="overflow:visible;opacity:0.75;enable-background:new    ;" width="525" height="525" xlink:href="D1FADA56.png"  transform="matrix(0.2368 0 0 0.2368 -8.0849 -8.1053)">
	</image>
	<g>
		<g>
			<path class="st0" d="M16.1,73.8c2.2,1.9,2.8,4.1,2.8,6.6c0,3.7,0,7.4,0,11.2c0,2.2-0.4,2.6-2.6,2.6c-4.7,0-9.4,0-14,0
				c-1.7,0-2.2-0.5-2.2-2.2c0-3.6,0.1-7.3,0-10.9c-0.1-3.4,0.8-6.2,3.9-8c-1.6-1.8-2.4-3.7-2.3-6.1c0.1-1.9,0.8-3.5,2-4.9
				C6.2,59.3,9.8,58.9,14,61c0-7.3,0-14.5,0-21.7c0,0-0.1,0-0.1-0.1c-0.5,1.5-0.9,2.9-1.4,4.4c-0.9,2.7-3.7,4.1-6.4,3.2
				c-2.4-0.8-3.9-3.3-3.3-5.7c1.4-5.2,2.8-10.4,4.5-15.4c1.3-3.9,4.4-6.1,8.5-6.7c0.4-0.1,0.8-0.1,1.3-0.2c-1.4-2.3-1.9-4.6-1.1-7
				c0.5-1.6,1.4-2.9,2.7-3.8c2.7-2,6.3-2.1,9.1-0.3c3.1,2.1,4,5.2,2.9,9.7c1.9-1,3.8-1.9,5.6-2.9c2.2-1.1,4.4-2.3,6.6-3.4
				c2.6-1.4,5.7-0.4,7,2.1s0.3,5.5-2.3,6.8c-4.5,2.4-9.1,4.7-13.6,7.1c-0.8,0.4-1,0.9-1,1.7c0,9.8,0,19.6,0,29.4c0,0.4,0,0.9,0,1.4
				c4.1-0.3,7.2,1.1,8.8,4.8c1.3,3.1,0.6,5.9-1.6,8.5c0,0.1,0,0.2,0.1,0.2c2.8,1.7,3.8,4.3,3.8,7.5c-0.1,3.8,0,7.5,0,11.3
				c0,1.7-0.5,2.2-2.2,2.2c-4.9,0-9.8,0-14.6,0c-1.4,0-2-0.5-2-1.7c0-4.5,0-9,0-13.4c0-2.1,1-3.7,2.6-5.2
				C23.9,73.8,20.1,73.8,16.1,73.8z M27.3,70.5c-1.2-3.3-0.7-6.2,1.7-8.7c0.6-0.6,0.8-1.2,0.8-2c0-10.8,0-21.5,0-32.3
				c0-1.5,0.5-2.2,1.8-2.9c4.8-2.4,9.5-4.9,14.3-7.4c1.4-0.7,1.8-1.7,1.3-2.8c-0.6-1.1-1.7-1.3-3-0.6c-4.7,2.4-9.4,4.9-14.1,7.3
				c-0.8,0.4-1.7,0.6-2.6,0.6c-3.3,0.1-6.6,0-9.8,0c-3.5,0-6.4,2-7.3,5C8.9,31.4,7.6,36.2,6.2,41c-0.4,1.3,0.2,2.3,1.3,2.6
				c1,0.3,1.9-0.3,2.3-1.5c0.5-1.5,1-3,1.4-4.6c1-3.1,1.9-6.2,2.9-9.3c0.4-1.4,1.1-2,2-1.8c1.2,0.3,1.4,1.2,1.3,2.2
				c0,0.2,0,0.5,0,0.7c0,11.6,0,23.3,0,34.9c0,2-0.2,4-0.3,5.9c1.5,0,3.2,0,5,0c0-8.9,0-17.7,0-26.5c1.1,0,2,0,3.1,0
				c0,8.9,0,17.7,0,26.5C25.9,70.5,26.6,70.5,27.3,70.5z M15.6,91c0-4.1,0.1-8.1,0-12.1c0-1.8-1.6-3.3-3.5-3.5
				c-1.6-0.1-3.3-0.1-4.9,0c-2.5,0.2-4,1.8-4,4.3c0,1.7,0,3.4,0,5c0,2.1,0,4.1,0,6.3c0.4,0,0.6,0,0.8,0C7.8,91,11.7,91,15.6,91z
				 M40.8,90.9c0-4.1,0.1-8.1,0-12.1c-0.1-1.9-1.7-3.3-3.7-3.5c-1.3-0.1-2.6-0.1-4-0.1c-3.3,0-4.8,1.6-4.9,4.9c0,2.5,0,5,0,7.6
				c0,1.1,0,2.1,0,3.2C32.5,90.9,36.5,90.9,40.8,90.9z M39.2,67.3c0-2.6-2.1-4.7-4.6-4.7c-2.6,0-4.7,2.1-4.7,4.7S32,72,34.6,72
				C37.2,72,39.2,70,39.2,67.3z M9.5,72.1c2.6,0,4.6-2.1,4.7-4.6c0-2.6-2.1-4.8-4.7-4.8s-4.7,2.1-4.7,4.7S6.9,72.1,9.5,72.1z
				 M23.5,18.8c2.6,0,4.7-2.1,4.7-4.7s-2.1-4.6-4.7-4.7s-4.7,2.1-4.7,4.6C18.9,16.7,20.9,18.8,23.5,18.8z"/>
			<path class="st0" d="M36.1,40.8c0-1.1,0-2,0-3.1c18.3,0,36.5,0,54.8,0c0-11.5,0-23,0-34.5c-29.2,0-58.4,0-87.7,0
				c0,9.8,0,19.7,0,29.6c-1.1,0-2.1,0-3.2,0c0-0.5,0-0.9,0-1.3c0-9.7,0-19.4,0-29C0,0.4,0.4,0,2.6,0C32.3,0,62,0,91.7,0
				c2.1,0,2.5,0.4,2.5,2.5c0,12,0,23.9,0,35.9c0,1.9-0.5,2.4-2.3,2.4c-18.3,0-36.6,0-54.8,0C36.8,40.8,36.5,40.8,36.1,40.8z"/>
			<path class="st0" d="M54,73c-3.1-5-2.8-8.9,0.8-11.8c3-2.4,7.5-2.2,10.3,0.5c2.5,2.5,3.8,6.9,0.1,11.2c0.2,0.2,0.4,0.3,0.6,0.5
				c2,1.4,3.1,3.2,3.2,5.6c0.1,4.4,0.1,8.8,0,13.2c0,1.3-0.6,1.8-2,1.8c-5,0-9.9,0-14.9,0c-1.4,0-2-0.6-2-2c0-4.3,0-8.6,0-12.8
				c0-2.4,1.1-4.3,3-5.7C53.5,73.4,53.8,73.2,54,73z M65.8,90.9c0-0.3,0.1-0.5,0.1-0.8c0-3.4,0-6.9,0-10.3c0-2.9-1.6-4.5-4.5-4.6
				c-1.2,0-2.5-0.1-3.7,0c-2.7,0.1-4.3,1.7-4.3,4.5c0,3.1,0,6.2,0,9.4c0,0.6,0,1.2,0,1.8C57.6,90.9,61.7,90.9,65.8,90.9z M59.6,72.1
				c2.6,0,4.7-2,4.7-4.6s-2.1-4.8-4.7-4.8c-2.6,0-4.7,2.1-4.7,4.8C55,70.1,57,72.1,59.6,72.1z"/>
			<path class="st0" d="M79.1,73c-3.1-5.2-2.8-9,1-11.9c2.8-2.2,7.4-2,10,0.6s3.7,7.1,0.2,11.3c1.9,1.1,3.2,2.7,3.7,4.9
				c0.1,0.6,0.2,1.2,0.2,1.8c0,4.1,0,8.2,0,12.2c0,1.7-0.5,2.2-2.1,2.2c-4.9,0-9.8,0-14.6,0c-1.4,0-2.1-0.5-2.1-1.8
				c0-4.4,0-8.8,0-13.2c0.1-2.5,1.2-4.4,3.3-5.8C78.8,73.3,79,73.1,79.1,73z M91,90.9c0-4,0.1-7.9,0-11.8c-0.1-2.2-1.6-3.6-3.8-3.8
				c-1.6-0.1-3.3-0.1-4.9,0c-2.3,0.2-3.7,1.8-3.7,4.1c0,2,0,4.1,0,6.1c0,1.8,0,3.6,0,5.4C82.7,90.9,86.8,90.9,91,90.9z M84.7,72.1
				c2.7,0,4.8-2,4.8-4.6c0-2.5-2.1-4.7-4.6-4.7c-2.6-0.1-4.8,2.1-4.8,4.7C80,69.9,82.1,72,84.7,72.1z"/>
			<path class="st0" d="M87.9,17.4c0,1,0,1.9,0,2.9c-10.4,0-20.8,0-31.3,0c0-0.9,0-1.9,0-2.9C66.9,17.4,77.3,17.4,87.9,17.4z"/>
			<path class="st0" d="M81.6,26.7c0,1,0,1.9,0,3c-10.4,0-20.8,0-31.3,0c0-0.9,0-1.9,0-3C60.7,26.7,71.1,26.7,81.6,26.7z"/>
			<path class="st0" d="M83.1,8c0,1,0,2,0,3c-10.4,0-20.8,0-31.2,0c0-1,0-1.9,0-3C62.2,8,72.6,8,83.1,8z"/>
		</g>
	</g>
</g>
</svg>
