<?xml version="1.0" encoding="utf-8"?>
<!-- Generator: Adobe Illustrator 23.0.1, SVG Export Plug-In . SVG Version: 6.00 Build 0)  -->
<svg version="1.1" id="Camada_1" xmlns="http://www.w3.org/2000/svg" xmlns:xlink="http://www.w3.org/1999/xlink" x="0px" y="0px"
	 viewBox="0 0 115.3 109" style="enable-background:new 0 0 115.3 109;" xml:space="preserve">
<style type="text/css">
	.st0{fill:#828282;}
</style>
<g>
	<g>
		
			<image style="overflow:visible;opacity:0.75;enable-background:new    ;" width="479" height="588" xlink:href="33726C15.png"  transform="matrix(0.2367 0 0 0.2367 -7.9665 -8.0111)">
		</image>
		<g>
			<path class="st0" d="M0,54.5c0-16,0-32,0-48C0,2.1,2.1,0,6.5,0C30,0,53.6,0,77.2,0c4.3,0,6.4,2.1,6.4,6.4c0,10.6,0,21.3,0,32
				c0,0.5,0.1,1.2-0.2,1.6c-0.3,0.6-1,1.3-1.5,1.3c-0.6,0-1.4-0.6-1.8-1.2c-0.3-0.5-0.2-1.3-0.2-1.9c0-10.6,0-21.2,0-31.8
				c0-2.3-0.5-2.8-2.8-2.8c-23.5,0-47,0-70.6,0c-2.3,0-2.9,0.6-2.9,2.8c0,32.1,0,64.1,0,96.2c0,2.2,0.5,2.7,2.8,2.7
				c23.5,0,47,0,70.6,0c2.4,0,2.8-0.4,2.9-2.8c0-5.3,0-10.7,0-16.1c0-0.6,0-1.4,0.3-1.9c0.4-0.5,1.2-1,1.8-0.9
				c0.5,0,1.1,0.7,1.4,1.3c0.2,0.4,0.2,1.1,0.2,1.6c0,5.3,0,10.7,0,16.1c0,4.4-2,6.4-6.3,6.4c-23.6,0-47.3,0-70.9,0
				c-4.3,0-6.4-2-6.4-6.3C0,86.6,0,70.5,0,54.5z"/>
		</g>
	</g>
	<g>
		
			<image style="overflow:visible;opacity:0.75;enable-background:new    ;" width="404" height="433" xlink:href="33726C17.png"  transform="matrix(0.2364 0 0 0.2364 35.5315 13.8806)">
		</image>
		<g>
			<path class="st0" d="M90.9,34.6c1.4-2.4,2.8-4.7,4.1-6.9c0.6-1,1.2-1.7,2.5-1.8c0.4,0,0.9-0.7,1.3-1.2c2.2-3.2,5.7-3.8,8.5-1.4
				c2,1.7,2.3,4.4,0.9,7.1c-0.4,0.7-0.8,1.2-0.2,2.2c0.3,0.5,0,1.7-0.4,2.4c-1.3,2.4-2.7,4.7-4,7c0.1,0.1,0.1,0.2,0.2,0.2
				c4.7,2.2,5,6,2.2,10.2c-2.1,3.3-3.9,6.7-5.9,10.1c-0.6,1-1.3,1.8-2.6,1.2c-1.1-0.5-1.3-1.5-0.6-2.9c2.1-3.7,4.3-7.4,6.4-11.1
				c1.5-2.5,1.3-3.1-1.6-4.5c-0.3,0.5-0.6,1-0.9,1.4C96.1,54.8,91.5,63,86.7,71c-1.5,2.5-3.6,4.6-5.3,6.9c-1.3,1.7-2.5,3.4-3.7,5.1
				c-1.4,2.2-3.2,3.5-5.9,3.2c-0.4,0-0.9,0.4-1.3,0.7c-1.1,1.3-2.1,2.7-3.2,4.1c-2.3,2.8-5.3,2.4-6.7-0.9c-0.3-0.7-0.6-1.4-1-2.2
				c-0.3,0.4-0.5,0.6-0.7,0.9c-1.2,1.6-2.7,2.1-4.2,1.6c-1.7-0.6-2.4-1.8-2.6-3.6c-0.2-2-0.4-4.1-0.9-6.1c-1.1,3.3-2.2,6.6-3.3,9.9
				c-0.3,0.9-0.5,1.9-1,2.7c-0.4,0.5-1.4,1.1-1.9,1c-0.6-0.2-1-1.2-1.4-1.8c-0.1-0.1,0-0.3,0.1-0.5c1.5-4.6,3-9.2,4.7-13.8
				c0.5-1.5,2.2-2.2,3.7-2s2.8,1.4,3,3c0.3,2.3,0.5,4.7,0.8,7.1c3-4,6.8-3.1,8.3,2.7c1.3-1.6,2.6-3.1,3.7-4.6c0.2-0.2,0-0.8-0.1-1.2
				c-0.7-1.7-0.7-3.3,0.1-5c1.4-3,2.8-6,3.9-9.1c2.2-6.3,6-11.6,9.1-17.3c2.6-4.7,5.3-9.3,8-14c-1.2-1-3.2-1.5-2.1-3.5
				C88,32.6,89.4,34,90.9,34.6z M92.3,39.6c-4.9,8.5-9.7,16.8-14.5,25.2c2.1,1.2,4.1,2.3,6.2,3.6c4.9-8.4,9.7-16.7,14.6-25.1
				C96.4,42,94.4,40.8,92.3,39.6z M97.7,30.2c-1.3,2.1-2.4,4.1-3.7,6.2c2.2,1.2,4.2,2.4,6.3,3.6c1.2-2.1,2.4-4.1,3.6-6.2
				C101.9,32.6,99.9,31.5,97.7,30.2z M77.2,77.1c1.6-1.9,3.1-3.7,4.7-5.7c-2-1.1-3.8-2.2-5.7-3.3c-0.9,2.4-1.7,4.6-2.6,7
				C74.8,75.7,75.9,76.3,77.2,77.1z M72.2,78.4c-1.5,2.2-1.5,3.3-0.2,4c1.2,0.7,2.1,0.1,3.1-2.2C74.2,79.6,73.3,79.1,72.2,78.4z
				 M104.7,30c0.2-1.5,0.5-2.6,0.3-3.6c0-0.3-1.3-1-1.7-0.8c-0.9,0.5-1.6,1.3-2.5,2.2C102.2,28.5,103.1,29.1,104.7,30z"/>
		</g>
	</g>
	<g>
		
			<image style="overflow:visible;opacity:0.75;enable-background:new    ;" width="342" height="175" xlink:href="33726C12.png"  transform="matrix(0.2345 0 0 0.2345 8.6296 2.7889)">
		</image>
		<g>
			<path class="st0" d="M20,14.6c0,1.3,0,2.4,0,3.6c0.7,0,1.4,0,2,0c13.9,0,27.9,0,41.9,0c0.5,0,1,0,1.5,0c1.1,0.1,1.9,0.7,1.8,1.9
				c0,1.1-0.7,1.6-1.8,1.7c-0.4,0-0.9,0-1.3,0c-14.9,0-29.7,0-44.6,0c-2.8,0-3.1-0.3-3.1-3.1c0-1.7,0-3.3,0-5c0-2.4,0.3-2.7,2.7-2.7
				c13.7,0,27.4,0,41,0c1.7,0,3.3,0,5,0c1.3,0,2,0.6,2,1.8s-0.8,1.7-1.9,1.8c-0.5,0-1,0-1.5,0c-13.9,0-27.8,0-41.7,0
				C21.5,14.6,20.8,14.6,20,14.6z"/>
		</g>
	</g>
	<g>
		
			<image style="overflow:visible;opacity:0.75;enable-background:new    ;" width="258" height="258" xlink:href="33726C13.png"  transform="matrix(0.2363 0 0 0.2363 -0.8285 62.7889)">
		</image>
		<g>
			<path class="st0" d="M21.6,101.7c-5.2-0.2-10.1-3-12.8-8.9c-2.7-5.8-2-11.4,2-16.3c4-4.9,9.5-6.7,15.7-5.1c1.7,0.4,3.4,1.4,5,2.2
				c1.1,0.6,1.6,1.6,0.9,2.7c-0.7,1.2-1.8,1-2.8,0.3c-2.5-1.7-5.1-2.5-8.1-2.1c-4.5,0.6-7.8,3-9.5,7.1s-1.3,8.1,1.4,11.6
				c3,3.9,7,5.4,11.7,4.5c4.8-1,7.9-4.1,9.1-8.8c0.2-0.8,0.3-1.7,0.3-2.6c0.1-1.2,0.6-1.9,2-1.9c1.3,0.1,1.6,1,1.6,2.2
				C38,95,31.2,101.7,21.6,101.7z"/>
		</g>
	</g>
	<g>
		
			<image style="overflow:visible;opacity:0.75;enable-background:new    ;" width="308" height="142" xlink:href="33726C1D.png"  transform="matrix(0.2383 0 0 0.2383 21.1518 30.1489)">
		</image>
		<g>
			<path class="st0" d="M51,38.2c6.2,0,12.4,0,18.6,0c0.5,0,1.1-0.1,1.4,0.1c0.6,0.4,1.4,1,1.5,1.6s-0.7,1.3-1.2,1.8
				c-0.3,0.3-0.9,0.2-1.4,0.2c-12.7,0-25.4,0-38.1,0c-0.5,0-1.2,0-1.5-0.3c-0.5-0.4-1.1-1.2-1-1.7c0-0.6,0.8-1.2,1.3-1.5
				c0.4-0.3,1-0.1,1.6-0.1C38.4,38.2,44.7,38.2,51,38.2z"/>
		</g>
	</g>
	<g>
		
			<image style="overflow:visible;opacity:0.75;enable-background:new    ;" width="296" height="146" xlink:href="33726C1F.png"  transform="matrix(0.2318 0 0 0.2318 14.4279 17.4289)">
		</image>
		<g>
			<path class="st0" d="M41.9,29.1c-5.7,0-11.5,0-17.2,0c-0.5,0-1.2,0.1-1.6-0.2c-0.5-0.4-1.2-1.1-1.2-1.7s0.7-1.3,1.3-1.6
				c0.4-0.3,1.1-0.2,1.7-0.2c11.3,0,22.6,0,33.9,0c0.6,0,1.3,0,1.7,0.2c0.5,0.3,1.1,1,1.1,1.6c0,0.5-0.5,1.2-1,1.6
				c-0.4,0.3-1,0.3-1.6,0.3C53.3,29.1,47.6,29.1,41.9,29.1z"/>
		</g>
	</g>
	<g>
		
			<image style="overflow:visible;opacity:0.75;enable-background:new    ;" width="296" height="146" xlink:href="33726C10.png"  transform="matrix(0.2318 0 0 0.2318 5.4279 40.9489)">
		</image>
		<g>
			<path class="st0" d="M32.6,52.7c-5.6,0-11.1,0-16.7,0c-0.5,0-1.2,0.1-1.6-0.1c-0.6-0.4-1.4-1-1.5-1.6c0-0.6,0.7-1.3,1.3-1.8
				c0.3-0.2,0.8-0.2,1.3-0.2c11.6,0,23.1,0,34.7,0c1.7,0,2.7,0.7,2.6,2c-0.2,1.5-1.3,1.7-2.5,1.7C44.3,52.7,38.5,52.7,32.6,52.7z"/>
		</g>
	</g>
	<g>
		
			<image style="overflow:visible;opacity:0.75;enable-background:new    ;" width="221" height="142" xlink:href="33726C11.png"  transform="matrix(0.2357 0 0 0.2357 4.5715 50.2573)">
		</image>
		<g>
			<path class="st0" d="M23.6,61.8c-2.8,0-5.6,0-8.4,0c-1.3,0-2.3-0.3-2.4-1.8c-0.1-1.1,0.9-1.9,2.5-1.9c5.6,0,11.1,0,16.7,0
				c1.7,0,2.5,0.7,2.5,1.9c-0.1,1.5-1.2,1.8-2.4,1.8C29.2,61.8,26.4,61.8,23.6,61.8z"/>
		</g>
	</g>
	<g>
		
			<image style="overflow:visible;opacity:0.75;enable-background:new    ;" width="196" height="175" xlink:href="33726C16.png"  transform="matrix(0.2331 0 0 0.2331 7.6435 72.8689)">
		</image>
		<g>
			<path class="st0" d="M22.3,88.3c2.1-2.3,3.9-4.3,5.8-6.2c1.1-1.2,2.3-1.4,3-0.5c0.9,1.1,0.5,2.1-0.4,3c-1.9,1.9-3.7,3.8-5.6,5.6
				c-1.8,1.8-3.7,1.8-5.6,0.1c-1.1-1.1-2.2-2.2-3.3-3.3c-0.9-0.9-1.3-1.9-0.3-3c1-0.9,2-0.6,2.8,0.3C19.8,85.5,20.9,86.7,22.3,88.3z
				"/>
		</g>
	</g>
	<g>
		
			<image style="overflow:visible;opacity:0.75;enable-background:new    ;" width="196" height="146" xlink:href="6F899F1E.png"  transform="matrix(0.2318 0 0 0.2318 48.817 40.9489)">
		</image>
		<g>
			<path class="st0" d="M64.4,52.7c-1.9,0-3.9,0-5.8,0c-1.2,0-2.2-0.4-2.2-1.8c0-1.4,1-1.8,2.2-1.8c3.9,0,7.9,0,11.8,0
				c1.2,0,2.2,0.5,2.2,1.9c0,1.3-1,1.8-2.2,1.8C68.4,52.7,66.4,52.7,64.4,52.7z"/>
		</g>
	</g>
	<g>
		
			<image style="overflow:visible;opacity:0.75;enable-background:new    ;" width="196" height="142" xlink:href="6F899F19.png"  transform="matrix(0.2376 0 0 0.2376 30.0115 50.1228)">
		</image>
		<g>
			<path class="st0" d="M46.2,61.8c-1.9,0-3.9,0-5.8,0c-1.2,0-2.1-0.4-2.1-1.7c-0.1-1.4,0.9-1.9,2.1-1.9c4,0,8,0,12,0
				c1.2,0,2.2,0.6,2.2,1.9c0,1.2-0.9,1.7-2.1,1.7C50.3,61.8,48.3,61.8,46.2,61.8z"/>
		</g>
	</g>
</g>
</svg>
