<?xml version="1.0" encoding="utf-8"?>
<!-- Generator: Adobe Illustrator 23.0.1, SVG Export Plug-In . SVG Version: 6.00 Build 0)  -->
<svg version="1.1" id="Camada_1" xmlns="http://www.w3.org/2000/svg" xmlns:xlink="http://www.w3.org/1999/xlink" x="0px" y="0px"
	 viewBox="0 0 30 33" style="enable-background:new 0 0 30 33;" xml:space="preserve">
<style type="text/css">
	.st0{fill:#FFFFFF;}
</style>
<path class="st0" d="M27.84,0H2.16C1.1,0,0.24,0.86,0.24,1.92v29.15C0.24,32.14,1.1,33,2.16,33h25.68c1.06,0,1.92-0.86,1.92-1.92
	V1.92C29.76,0.86,28.9,0,27.84,0z M23.58,25.84H6.86c-0.66,0-1.19-0.53-1.19-1.19c0-0.66,0.53-1.19,1.19-1.19h16.72
	c0.66,0,1.19,0.53,1.19,1.19C24.77,25.3,24.23,25.84,23.58,25.84z M23.58,21.06H6.86c-0.66,0-1.19-0.53-1.19-1.19
	c0-0.66,0.53-1.19,1.19-1.19h16.72c0.66,0,1.19,0.53,1.19,1.19C24.77,20.52,24.23,21.06,23.58,21.06z M23.58,16.28H6.86
	c-0.66,0-1.19-0.53-1.19-1.19c0-0.66,0.53-1.19,1.19-1.19h16.72c0.66,0,1.19,0.53,1.19,1.19C24.77,15.75,24.23,16.28,23.58,16.28z"
	/>
</svg>
