<?xml version="1.0" encoding="utf-8"?>
<!-- Generator: Adobe Illustrator 23.0.1, SVG Export Plug-In . SVG Version: 6.00 Build 0)  -->
<svg version="1.1" id="Camada_1" xmlns="http://www.w3.org/2000/svg" xmlns:xlink="http://www.w3.org/1999/xlink" x="0px" y="0px"
	 viewBox="0 0 52 57.2" style="enable-background:new 0 0 52 57.2;" xml:space="preserve">
<style type="text/css">
	.st0{fill:#898989;}
</style>
<path class="st0" d="M41.9,8.2H10.1c-1.3,0-2.4,1.1-2.4,2.4v36c0,1.3,1.1,2.4,2.4,2.4h31.7c1.3,0,2.4-1.1,2.4-2.4v-36
	C44.2,9.3,43.2,8.2,41.9,8.2z M36.6,40.1H15.9c-0.8,0-1.5-0.7-1.5-1.5s0.7-1.5,1.5-1.5h20.7c0.8,0,1.5,0.7,1.5,1.5
	C38.1,39.5,37.4,40.1,36.6,40.1z M36.6,34.2H15.9c-0.8,0-1.5-0.7-1.5-1.5s0.7-1.5,1.5-1.5h20.7c0.8,0,1.5,0.7,1.5,1.5
	C38.1,33.6,37.4,34.2,36.6,34.2z M36.6,28.3H15.9c-0.8,0-1.5-0.7-1.5-1.5c0-0.8,0.7-1.5,1.5-1.5h20.7c0.8,0,1.5,0.7,1.5,1.5
	S37.4,28.3,36.6,28.3z"/>
</svg>
