<?xml version="1.0" encoding="utf-8"?>
<!-- Generator: Adobe Illustrator 23.0.1, SVG Export Plug-In . SVG Version: 6.00 Build 0)  -->
<svg version="1.1" id="Camada_1" xmlns="http://www.w3.org/2000/svg" xmlns:xlink="http://www.w3.org/1999/xlink" x="0px" y="0px"
	 viewBox="0 0 52 51" style="enable-background:new 0 0 52 51;" xml:space="preserve">
<style type="text/css">
	.st0{fill:#898989;}
</style>
<path class="st0" d="M1,50.7h25.4V-0.1H1V50.7z M16.9,6.3h6.3v6.3h-6.3C16.9,12.6,16.9,6.3,16.9,6.3z M16.9,19h6.3v6.3h-6.3
	C16.9,25.3,16.9,19,16.9,19z M16.9,31.6h6.3V38h-6.3C16.9,38,16.9,31.6,16.9,31.6z M4.2,6.3h6.3v6.3H4.2V6.3z M4.2,19h6.3v6.3H4.2
	V19z M4.2,31.6h6.3V38H4.2V31.6z M29.5,15.8h22.2V19H29.5V15.8z M29.5,50.7h6.3V38h9.5v12.7h6.3V22.1H29.5V50.7z"/>
</svg>
