<?xml version="1.0" encoding="utf-8"?>
<!-- Generator: Adobe Illustrator 23.0.1, SVG Export Plug-In . SVG Version: 6.00 Build 0)  -->
<svg version="1.1" id="Camada_1" xmlns="http://www.w3.org/2000/svg" xmlns:xlink="http://www.w3.org/1999/xlink" x="0px" y="0px"
	 viewBox="0 0 512 512" style="enable-background:new 0 0 512 512;" xml:space="preserve">
<style type="text/css">
	.st0{fill:#FFFFFF;}
</style>
<path class="st0" d="M498.2,222.7c-0.01-0.01-0.02-0.02-0.04-0.04L289.3,13.81C280.4,4.91,268.57,0,255.98,0s-24.43,4.9-33.33,13.81
	L13.9,222.55c-0.07,0.07-0.14,0.14-0.21,0.21c-18.28,18.39-18.25,48.22,0.09,66.56c8.38,8.38,19.45,13.24,31.28,13.75
	c0.48,0.05,0.96,0.07,1.45,0.07h8.32v153.7C54.83,487.25,79.58,512,110,512h81.71c8.28,0,15-6.71,15-15V376.5
	c0-13.88,11.29-25.17,25.17-25.17h48.2c13.88,0,25.17,11.29,25.17,25.17V497c0,8.29,6.71,15,15,15h81.71
	c30.42,0,55.17-24.75,55.17-55.16v-153.7h7.72c12.59,0,24.42-4.9,33.33-13.81C516.53,270.96,516.54,241.08,498.2,222.7z"/>
</svg>
