<?xml version="1.0" encoding="utf-8"?>
<!-- Generator: Adobe Illustrator 23.0.1, SVG Export Plug-In . SVG Version: 6.00 Build 0)  -->
<svg version="1.1" id="Camada_1" xmlns="http://www.w3.org/2000/svg" xmlns:xlink="http://www.w3.org/1999/xlink" x="0px" y="0px"
	 viewBox="0 0 1610 1550.6" style="enable-background:new 0 0 1610 1550.6;" xml:space="preserve">
<style type="text/css">
	.st0{opacity:0.21;}
	.st1{fill:url(#SVGID_1_);}
	.st2{fill:url(#SVGID_2_);}
	.st3{fill:url(#SVGID_3_);}
</style>
<g class="st0">
	<g>
		<g>
			<g>
				
					<radialGradient id="SVGID_1_" cx="723.5798" cy="-215.7812" r="1668.29" gradientTransform="matrix(0.9936 -0.1126 -0.1204 -1.0623 60.6369 406.2445)" gradientUnits="userSpaceOnUse">
					<stop  offset="0" style="stop-color:#003A7A"/>
					<stop  offset="0.1538" style="stop-color:#00336C"/>
					<stop  offset="0.3944" style="stop-color:#002B5D"/>
					<stop  offset="0.5894" style="stop-color:#002858"/>
					<stop  offset="0.724" style="stop-color:#002551"/>
					<stop  offset="0.9183" style="stop-color:#001D3D"/>
				</radialGradient>
				<path class="st1" d="M421.5,195.6c256.4,0,511.8,0,768,0c0,85.2,0,169.5,0,255.7c-227.6,0-454.8,0-683.4,0
					c0,154.6,0,307.3,0,461.1c-28.7,0-56,0-84.7,0C421.5,674,421.5,435.4,421.5,195.6z"/>
				
					<radialGradient id="SVGID_2_" cx="804.8906" cy="-621.947" r="1495.9569" gradientTransform="matrix(1 0 0 -1 0 305.8898)" gradientUnits="userSpaceOnUse">
					<stop  offset="0" style="stop-color:#003A7A"/>
					<stop  offset="0.1538" style="stop-color:#00336C"/>
					<stop  offset="0.3944" style="stop-color:#002B5D"/>
					<stop  offset="0.5894" style="stop-color:#002858"/>
					<stop  offset="0.724" style="stop-color:#002551"/>
					<stop  offset="0.9183" style="stop-color:#001D3D"/>
				</radialGradient>
				<path class="st2" d="M420.4,1285.9c0-5.8,0-10.5,0-15.2c0-79.3,0-158.6,0-239.6c228.1,0,455.3,0,683.8,0
					c0-154.5,0-307.3,0-461.2c28.9,0,56.6,0,85.1,0c0,238.4,0,476.7,0,716.1C933.7,1285.9,678,1285.9,420.4,1285.9z"/>
				
					<radialGradient id="SVGID_3_" cx="805.6592" cy="-435.0405" r="178.9946" fx="804.1588" fy="-476.1953" gradientTransform="matrix(1 0 0 -1 0 305.8898)" gradientUnits="userSpaceOnUse">
					<stop  offset="0" style="stop-color:#C1102F"/>
					<stop  offset="0.1683" style="stop-color:#D1102F"/>
					<stop  offset="0.4009" style="stop-color:#E0102F"/>
					<stop  offset="0.5894" style="stop-color:#E5102F"/>
					<stop  offset="0.6997" style="stop-color:#DE102F"/>
					<stop  offset="0.865" style="stop-color:#C9102F"/>
					<stop  offset="0.9183" style="stop-color:#C1102F"/>
				</radialGradient>
				<path class="st3" d="M805.7,919.8c-100-0.8-179.6-80.6-179.2-179.5c0.4-99,81.3-178.7,180.7-178.1
					c99.9,0.6,178.5,81.4,177.6,182.5C983.9,841.2,902.8,920.5,805.7,919.8z"/>
			</g>
		</g>
	</g>
</g>
</svg>
