<?xml version="1.0" encoding="utf-8"?>
<!-- Generator: Adobe Illustrator 23.0.1, SVG Export Plug-In . SVG Version: 6.00 Build 0)  -->
<svg version="1.1" id="Camada_1" xmlns="http://www.w3.org/2000/svg" xmlns:xlink="http://www.w3.org/1999/xlink" x="0px" y="0px"
	 viewBox="0 0 134 134" style="enable-background:new 0 0 134 134;" xml:space="preserve">
<style type="text/css">
	.st0{fill:#828282;}
</style>
<title>Ativo 9</title>
<g>
	<g>
		<g id="Camada_1-2">
			
				<image style="overflow:visible;opacity:0.75;enable-background:new    ;" width="134" height="134" xlink:href="FAABBFEC.png"  transform="matrix(1 0 0 1 0 -2.018494e-05)">
			</image>
			<path class="st0" d="M29,24.5c-1.6-3-3.3-6.1-5-9.2c-0.9-1.4-0.4-3.3,1-4.1c0.3-0.2,0.6-0.3,0.9-0.4c0.6-0.1,1.3,0,1.9,0.2
				c1.5,0.4,3,1.3,4.3,1s2.3-1.9,3.3-2.9c1.1-1.2,3-1.3,4.2-0.2c0.2,0.2,0.3,0.3,0.5,0.5c0.5,0.7,1,1.4,1.8,2.4
				c0.8-0.9,1.4-1.7,2.1-2.5c1.7-1.8,3.6-1.6,5.1,0.4c0.6,0.7,1.1,1.5,1.8,2.3c1-0.5,2-1,3-1.5c1.4-0.9,3.2-0.5,4.1,0.9
				c0.6,0.9,0.6,2.1,0.1,3.1c-1.3,3.1-2.5,6.3-3.8,9.4c-0.3,0.5-0.2,1.2,0.2,1.7c0.8,1.3,1.5,2.7,2.2,4.1c0.2,0.4,0.6,0.6,1,0.7
				c2,0.1,4.1,0,6.3,0V29c0-5.6,0-11.3,0-16.9c0-1.8,0.6-2.3,2.3-2.3h16c1.8,0,2.3,0.6,2.3,2.4V35c1.3-1.3,2.3-2.3,3.3-3.4
				c1.6-1.6,2.1-1.6,3.7,0L104,43.9c0.7,0.7,1.5,1.3,1,2.5s-1.5,1.1-2.5,1.1c-0.2,0-0.4,0-0.7,0v7.4c0.2,0,0.4-0.1,0.7-0.2
				c3.3-1.2,7,0.5,8.2,3.8c0.4,1,0.5,2.1,0.3,3.2c-1,7.8-3.1,15.1-7.6,21.7C94.2,97,81.4,104,65,104.2c-12.5,0.2-25,0-37.4,0h-1.4
				c0,1.1,0,2,0,3c0,2.4-1.4,3.8-3.8,3.8c-3.2,0-6.5,0-9.7,0c-1.9,0.1-3.5-1.3-3.7-3.2c0-0.1,0-0.3,0-0.4C9,95,9,82.5,9,70.1
				c-0.2-1.9,1.2-3.5,3.1-3.7c0.2,0,0.4,0,0.5,0c3.3,0,6.5,0,9.8,0c1.9-0.1,3.6,1.3,3.7,3.2c0,0.1,0,0.3,0,0.4c0,1.1,0,2.1,0,3.3
				c0.4-0.2,0.7-0.3,1-0.5c7.3-4.3,15.7-6.5,24.2-6.5c7.7,0,15.5,0.1,23.2,0c4.6-0.1,7.9,1.7,9.6,6.2c3-1.3,6-2.6,9-3.9
				c0.2-0.1,0.4-0.3,0.5-0.5c1.1-2.2,2.3-4.5,3.5-6.9h-65c-6.7,0-11-4.3-11.1-11c-0.1-5.8,0.3-11.4,2.7-16.8
				c0.7-1.6,1.5-3.1,2.3-4.7C26.8,27.3,27.9,26,29,24.5z M26.2,100.7c0.4,0,0.6,0,0.9,0c12.8,0,25.5,0.2,38.3,0
				c13.4-0.2,24.5-5.7,33-16.1c5.5-6.8,8.2-14.7,9.3-23.2c0.3-1.6-0.7-3.1-2.2-3.5c-1.4-0.4-2.9,0.4-3.5,1.8c-1.7,3.3-3.4,6.6-5,10
				c-0.4,1-1.3,1.8-2.3,2.2c-3.1,1.3-6.2,2.6-9.2,4c-0.5,0.3-0.8,0.7-1,1.2c-1,3.9-4.5,6.6-8.5,6.5H49.6c-0.3,0-0.7,0-1-0.1v-3.4H50
				c8.5,0,17,0,25.5,0c3.3,0,5.7-2.1,5.7-5.1s-2.3-5.2-5.6-5.2h-24c-7.9-0.1-15.7,2-22.6,6c-2.8,1.6-2.8,1.6-2.8,4.9L26.2,100.7
				L26.2,100.7z M53.2,30.3c-0.4-0.8-0.7-1.4-1-2c-0.4-1-1.4-1.6-2.5-1.5c-5.6,0.1-11.2,0.1-16.8,0c-0.9-0.1-1.7,0.3-2.2,1
				c-1.9,2.6-3.5,5.4-4.6,8.5c-1.8,4.6-1.8,9.3-1.7,14.1c0.1,4.4,2.9,7.3,7.3,7.3c5.1,0,10.3,0,15.5,0c0.4,0,0.8,0,1.3-0.1V32.5
				c0-1.6,0.6-2.2,2.2-2.2H53.2z M67.5,13.1v44.5h10.2V47.5h-1c-0.9,0.2-1.8-0.3-2.2-1.1c-0.4-1,0.2-1.6,0.8-2.2
				c1.7-1.7,3.5-3.4,5.1-5.1c0.5-0.5,0.8-1.2,0.8-1.9c0.1-7.6,0-15.2,0-22.8v-1.1H67.5V13.1z M12.5,69.8v37.7h10.2V69.8H12.5z
				 M63.9,33.8H52v23.9h11.9V33.8z M37.6,11.6c-0.9,1-1.8,1.9-2.6,2.8c-1,1.2-2.6,1.6-4,1c-1.1-0.4-2.2-0.6-3.5-1
				c1.6,3,3.1,5.8,4.6,8.5c0.2,0.2,0.4,0.4,0.7,0.4c0.8,0,1.7,0,2.6,0l-1.6-3.5l3.1-1.5l2.4,5c0.4,0,0.8,0,1.2,0
				c1.1,0.3,2.3-0.3,2.6-1.4v-0.1c0.6-1.5,1.4-2.9,2.2-4.4l3.1,1.6l-2.1,4.4c1.3,0,2.5,0,3.6,0c0.6,0.1,1.2-0.3,1.4-0.9
				c1-2.5,2-5.1,3.1-7.6c0.1-0.4,0.2-0.8,0.3-1.1c-3.9,3.3-6.1,1.2-8-2.3c-0.9,1-1.6,1.8-2.3,2.6c-1.7,1.7-3.5,1.5-5-0.4
				C38.6,13,38.2,12.4,37.6,11.6z M89.8,34.7l-9.2,9.2H99L89.8,34.7z M98.3,47.5H81.2v10.1h3.4c0-2.2,0-4.3,0-6.4
				c0-1.5,0.6-2.1,2.1-2.1c1.8,0,3.7,0,5.5,0c2.3,0,2.7,0.4,2.7,2.7v5.8h3.4L98.3,47.5z M88.1,52.7v5h3.3v-5H88.1z"/>
			<path class="st0" d="M12.4,23.4V20h3.4v3.4l0,0H12.4L12.4,23.4z"/>
			<path class="st0" d="M112,23.3h-3.3V20h3.3V23.3z"/>
			<path class="st0" d="M12.4,26.8H9.1v-3.4h3.4l0,0v3.4H12.4z"/>
			<path class="st0" d="M96.7,28.5v-3.3h3.3v3.3H96.7z"/>
			<path class="st0" d="M15.8,26.8v3.4h-3.4v-3.4l0,0H15.8L15.8,26.8z"/>
			<path class="st0" d="M15.8,23.4h3.4v3.4h-3.4l0,0L15.8,23.4L15.8,23.4z"/>
			<path class="st0" d="M12.4,37.2v3.3H9v-3.3H12.4z"/>
			<path class="st0" d="M34.6,45.7c0.2,1.1,0.1,2.2,0.7,2.7s1.9,0.7,2.9,1l0.1,1.3h3.3l0.1-1.6h1c1.8,0,2.3-0.5,2.4-2.3
				c0-1.3,0-2.7,0-4c0-1.6-0.6-2.2-2.2-2.2h-4.6v-1.7h7c-0.2-1-0.1-2.2-0.6-2.7c-0.7-0.6-1.9-0.8-3-1.1l-0.1-1.3h-3.3l-0.1,1.7h-0.8
				c-2.1,0-2.5,0.5-2.5,2.6c0,1.3,0,2.5,0,3.8c0,1.5,0.6,2.2,2.1,2.2h4.7v1.7h-7.1C34.6,45.8,34.6,45.7,34.6,45.7z"/>
			<path class="st0" d="M55.4,37.2v3.3H57v-3.3H55.4z M62.2,37.2h-1.6v3.3h1.6V37.2z M57,47.4v-3.3h-1.6v3.3H57z M62.2,47.4v-3.3
				h-1.6v3.3H62.2z M60.6,51v3.3h1.6V51H60.6z M55.5,51v3.3H57V51H55.5z"/>
			<path class="st0" d="M34.6,45.7h7V44h-4.7c-1.5,0-2.1-0.6-2.1-2.2c0-1.3,0-2.5,0-3.8c0-2.2,0.4-2.6,2.5-2.6h0.8l0.1-1.7h3.3
				l0.1,1.3c1.1,0.4,2.3,0.5,3,1.1c0.5,0.5,0.4,1.6,0.6,2.7h-7v1.7h4.6c1.6,0,2.2,0.6,2.2,2.2c0,1.3,0,2.7,0,4
				c0,1.8-0.5,2.3-2.4,2.3h-1l-0.1,1.6h-3.3l-0.1-1.3c-1.1-0.3-2.3-0.4-2.9-1S34.8,46.8,34.6,45.7z"/>
			<path class="st0" d="M70.9,37.2h1.6v3.3h-1.6V37.2z"/>
			<path class="st0" d="M77.7,19.9h-1.6v-3.3h1.6V19.9z"/>
			<path class="st0" d="M70.9,16.6h1.6v3.3h-1.6V16.6z"/>
			<path class="st0" d="M77.7,23.5v3.3h-1.6v-3.3H77.7z"/>
			<path class="st0" d="M77.7,37.2v3.3h-1.6v-3.3H77.7z"/>
			<path class="st0" d="M70.9,26.8v-3.3h1.6v3.3H70.9z"/>
			<path class="st0" d="M72.5,30.3v3.3h-1.6v-3.3H72.5z"/>
			<path class="st0" d="M76.1,30.3h1.6v3.3h-1.6V30.3z"/>
			<path class="st0" d="M19.3,75v5H16v-5H19.3z"/>
			<path class="st0" d="M55.4,37.2H57v3.3h-1.6V37.2z"/>
			<path class="st0" d="M62.2,37.2v3.3h-1.6v-3.3H62.2z"/>
			<path class="st0" d="M57,47.4h-1.6v-3.3H57V47.4z"/>
			<path class="st0" d="M62.2,47.4h-1.6v-3.3h1.6V47.4z"/>
			<path class="st0" d="M60.6,51h1.6v3.3h-1.6V51z"/>
			<path class="st0" d="M55.5,51H57v3.3h-1.5V51z"/>
		</g>
	</g>
</g>
</svg>
