<?xml version="1.0" encoding="utf-8"?>
<!-- Generator: Adobe Illustrator 23.0.1, SVG Export Plug-In . SVG Version: 6.00 Build 0)  -->
<svg version="1.1" id="Camada_1" xmlns="http://www.w3.org/2000/svg" xmlns:xlink="http://www.w3.org/1999/xlink" x="0px" y="0px"
	 viewBox="0 0 132.9 104.6" style="enable-background:new 0 0 132.9 104.6;" xml:space="preserve">
<style type="text/css">
	.st0{fill:#828282;}
</style>
<g>
	
		<image style="overflow:visible;opacity:0.75;enable-background:new    ;" width="629" height="442" xlink:href="2AB0B43E.png"  transform="matrix(0.2378 0 0 0.2378 -7.7855 4.987)">
	</image>
	<g>
		<g>
			<path class="st0" d="M99.3,64c-1.1,0.8-2.1,1.3-3,2.1c-0.4,0.3-0.7,0.9-0.7,1.4c0,4.8-3.1,8.3-7.9,8.8c-0.4,0-0.9,0.4-1.1,0.7
				c-2,3.3-5.1,4.8-8.9,4.6c-0.9,0-1.4,0.2-1.9,1c-1.9,3-6,5.1-9.6,4c-0.3-0.1-0.7-0.1-1,0.1c-2.4,1.6-5.1,1.6-7.8,1.1
				c-2.7-0.6-5.2-1.6-7.4-3.3C43.1,79,36,73.6,29.1,68c-2.7-2.2-5-4.8-7.4-7.3c-0.3-0.3-0.5-0.8-0.8-1.2c-0.1,0.1-0.2,0.2-0.4,0.3
				c-0.1,0.4-0.3,0.8-0.4,1.1c-0.6,1.7-1.3,2.2-3.1,2.3c-4.6,0-9.3,0-13.9,0c-2.1,0-3-1-3.1-3C0,45.5,0,30.7,0,16
				c0-1.7,1-2.9,2.5-2.8c8,0.6,16,1.1,23.6,4c1.1,0.4,2.1,1,3,1.7c1.1,0.8,0.9,2,0.6,3.1c-0.1,0.3-0.1,0.6-0.1,1.1
				c0.4,0,0.8,0.1,1.2,0.1c5.9,0,11.9,0,17.8,0c0.6,0,1.3-0.2,1.7-0.5c6-4.7,12.4-5.2,19.3-2.3c4.7,2,9.4,3.9,14.1,5.9
				c0.4,0.2,0.8,0.3,1.5,0.5c-0.6-2.5,1-3.3,2.8-3.9c5.7-2.1,11.6-3.3,17.6-3.9c3.7-0.4,7.5-0.5,11.2-0.6c2.3-0.1,3.2,0.8,3.2,3.1
				c0,14.6,0,29.1,0,43.6c0,2.3-0.9,3.1-3.2,3.1c-4.4,0-8.8,0-13.1,0c-2.7,0-3.1-0.2-3.9-2.8C99.7,64.8,99.5,64.5,99.3,64z
				 M28.9,28.1c-0.3,1.5-0.6,3-0.9,4.4c-1.8,6.8-3.7,13.7-5.5,20.5c-0.1,0.5-0.1,1.2,0.2,1.5c3.8,3.8,7.5,7.7,11.6,11.1
				c6.2,5.2,12.7,10,19.1,14.9c2.2,1.7,4.7,2.6,7.7,2.1c-2.8-3-5.8-5.8-8.7-8.7c-0.7-0.7-1.3-1.3-1.9-2.1c-1-1.5-0.2-3.3,1.5-3.7
				c1.2-0.3,1.9,0.4,2.7,1.1c3.8,3.8,7.6,7.7,11.5,11.4c1.8,1.8,4.5,1.3,5.6-1c0.2-0.3,0.1-1.1-0.2-1.3c-3.4-3.5-6.8-6.9-10.2-10.4
				c-0.3-0.3-0.7-0.7-0.9-1.1c-0.7-1-0.5-2.2,0.4-3c0.8-0.8,2.2-0.9,3.1-0.3c0.5,0.3,0.9,0.8,1.3,1.2c3.6,3.6,7.2,7.3,10.9,10.9
				c1.6,1.6,4.1,1.3,5.7-0.3c0.7-0.7,0.7-1.2-0.1-2c-4.4-4.3-8.7-8.6-13-13c-0.5-0.3-0.8-0.8-1-1.3c-0.5-1.1-0.3-2.1,0.7-2.9
				c1-0.8,2-0.8,3-0.1c0.6,0.4,1.1,1,1.6,1.5c4.3,4.3,8.6,8.6,12.9,12.9c1,1,2.1,0.9,3.2,0.3c1.6-0.9,2.1-2.7,1.1-4.3
				c-0.7-1.2-1.5-2.4-2.5-3.3C79.4,55.8,71,48.6,62.5,41.4c-0.3-0.2-0.9-0.2-1.3-0.1c-1.1,0.3-2.1,0.9-3.3,1.2
				c-1,0.3-1.7,0.7-2.4,1.5c-3.5,4-7.8,5.5-13,4.1c-3.8-1-5.6-3.9-5-7.8c0.4-2.8,1.5-5.2,3.1-7.5c1.1-1.6,2.3-3.1,3.5-4.8
				C38.9,28.1,34,28.1,28.9,28.1z M97.9,58.9c-3.1-8.4-6.2-16.8-9.3-25.1c-0.2-0.4-0.6-0.8-1-1c-7.1-2.9-14.1-5.7-21.2-8.5
				c-4.3-1.7-8.6-1.2-12.3,1.7c-2.5,2-5.1,4.1-7.2,6.6c-1.7,2-3.1,4.5-4.2,6.9c-1.3,2.8-0.4,3.9,2.7,4.1c3,0.2,5-1.4,6.8-3.5
				c0.6-0.7,1.2-1.5,2-1.8c2.2-0.9,4.5-1.5,6.8-2.4c1.5-0.5,2.6-0.2,3.6,0.8c1.3,1.2,2.5,2.4,3.8,3.5c5,4.1,10.1,8.1,15,12.4
				c3.4,3,6.7,6.2,10,9.3C94.8,61,96.2,60.1,97.9,58.9z M91.1,26.9c1.3,3,2.6,5.9,3.7,8.9c3.1,8.7,6.2,17.4,9.2,26.1
				c0.3,0.9,0.8,1.2,1.7,1.2c2-0.1,3.9,0,5.9,0c1.1,0,2.2,0,3.3,0c0-13.4,0-26.6,0-39.9C106.8,23.4,98.9,24.3,91.1,26.9z M5.1,18.2
				c0,13.3,0,26.5,0,39.8c3.5,0,7,0,10.5,0c3.6-11.9,7.3-23.8,9.2-36.2C18.4,19.6,11.8,18.9,5.1,18.2z"/>
		</g>
	</g>
</g>
</svg>
