<?xml version="1.0" encoding="utf-8"?>
<!-- Generator: Adobe Illustrator 23.0.1, SVG Export Plug-In . SVG Version: 6.00 Build 0)  -->
<svg version="1.1" id="Camada_1" xmlns="http://www.w3.org/2000/svg" xmlns:xlink="http://www.w3.org/1999/xlink" x="0px" y="0px"
	 viewBox="0 0 512 512" style="enable-background:new 0 0 512 512;" xml:space="preserve">
<g>
	<path d="M122,160.2h268c10.6,0,19.2,8.6,19.2,19.2c0,10.6-8.6,19.2-19.2,19.2H122c-10.6,0-19.2-8.6-19.2-19.2
		C102.8,168.7,111.5,160.2,122,160.2z"/>
	<path d="M122,236.7h268c10.6,0,19.2,8.6,19.2,19.2c0,10.6-8.6,19.2-19.2,19.2H122c-10.6,0-19.2-8.6-19.2-19.2
		C102.8,245.3,111.5,236.7,122,236.7z"/>
	<path d="M122,313.4h268c10.6,0,19.2,8.6,19.2,19.2s-8.6,19.2-19.2,19.2H122c-10.6,0-19.2-8.6-19.2-19.2
		C102.9,321.9,111.5,313.4,122,313.4z"/>
</g>
</svg>
