<?xml version="1.0" encoding="utf-8"?>
<!-- Generator: Adobe Illustrator 23.0.1, SVG Export Plug-In . SVG Version: 6.00 Build 0)  -->
<svg version="1.1" id="Camada_1" xmlns="http://www.w3.org/2000/svg" xmlns:xlink="http://www.w3.org/1999/xlink" x="0px" y="0px"
	 viewBox="0 0 216 305" style="enable-background:new 0 0 216 305;" xml:space="preserve">
<style type="text/css">
	.st0{fill:#00295C;}
	.st1{fill:#C3102F;}
</style>
<g>
	<g>
		<path class="st0" d="M0.32-1.09c72.01,0,143.73,0,215.68,0c0,23.91,0,47.6,0,71.8c-63.9,0-127.71,0-191.91,0
			c0,43.41,0,86.3,0,129.48c-8.06,0-15.73,0-23.77,0C0.32,133.26,0.32,66.25,0.32-1.09z"/>
		<path class="st0" d="M0,305.09c0-1.64,0-2.96,0-4.28c0-22.27,0-44.53,0-67.29c64.06,0,127.87,0,192.03,0c0-43.39,0-86.29,0-129.53
			c8.11,0,15.88,0,23.91,0c0,66.95,0,133.86,0,201.1C144.15,305.09,72.34,305.09,0,305.09z"/>
		<path class="st1" d="M108.21,202.27c-28.09-0.22-50.45-22.63-50.34-50.42c0.11-27.8,22.84-50.19,50.76-50.02
			c28.05,0.17,50.12,22.86,49.86,51.25C158.24,180.19,135.46,202.49,108.21,202.27z"/>
	</g>
</g>
</svg>
