<?xml version="1.0" encoding="utf-8"?>
<!-- Generator: Adobe Illustrator 23.0.1, SVG Export Plug-In . SVG Version: 6.00 Build 0)  -->
<svg version="1.1" id="Capa_1" xmlns="http://www.w3.org/2000/svg" xmlns:xlink="http://www.w3.org/1999/xlink" x="0px" y="0px"
	 viewBox="0 0 512 393" style="enable-background:new 0 0 512 393;" xml:space="preserve">
<style type="text/css">
	.st0{fill:#FFFFFF;}
</style>
<g>
	<g>
		<path class="st0" d="M467,0H45c-6.9,0-13.4,1.7-19.3,4.5L255,233.8l51.4-49.4l0,0l0,0L486.3,4.5C480.4,1.7,473.9,0,467,0z"/>
	</g>
</g>
<g>
	<g>
		<path class="st0" d="M507.5,25.7L338.2,195l169.3,169.3c2.8-5.9,4.5-12.4,4.5-19.3V45C512,38.1,510.3,31.6,507.5,25.7z"/>
	</g>
</g>
<g>
	<g>
		<path class="st0" d="M4.5,25.7C1.7,31.6,0,38.1,0,45v300c0,6.9,1.7,13.4,4.5,19.3L173.8,195L4.5,25.7z"/>
	</g>
</g>
<g>
	<g>
		<path class="st0" d="M317,216.2l-51.4,49.4c-2.9,2.9-6.8,4.4-10.6,4.4s-7.7-1.5-10.6-4.4L195,216.2L25.7,385.5
			c5.9,2.8,12.4,4.5,19.3,4.5h422c6.9,0,13.4-1.7,19.3-4.5L317,216.2z"/>
	</g>
</g>
</svg>
