<?xml version="1.0" encoding="utf-8"?>
<!-- Generator: Adobe Illustrator 23.0.1, SVG Export Plug-In . SVG Version: 6.00 Build 0)  -->
<svg version="1.1" id="Capa_1" xmlns="http://www.w3.org/2000/svg" xmlns:xlink="http://www.w3.org/1999/xlink" x="0px" y="0px"
	 viewBox="0 0 512 393" style="enable-background:new 0 0 512 393;" xml:space="preserve">
<style type="text/css">
	.st0{fill:#FFFFFF;}
</style>
<g>
	<g>
		<path class="st0" d="M467,0H45c-6.93,0-13.41,1.7-19.28,4.51L255,233.79l51.39-49.39c0,0,0-0.01,0.01-0.01s0.01,0,0.01,0
			L486.29,4.51C480.42,1.71,473.93,0,467,0z"/>
	</g>
</g>
<g>
	<g>
		<path class="st0" d="M507.5,25.73L338.21,195l169.28,169.28c2.81-5.87,4.51-12.35,4.51-19.28V45
			C512,38.08,510.3,31.59,507.5,25.73z"/>
	</g>
</g>
<g>
	<g>
		<path class="st0" d="M4.51,25.72C1.7,31.59,0,38.07,0,45v300c0,6.92,1.7,13.41,4.51,19.27L173.79,195L4.51,25.72z"/>
	</g>
</g>
<g>
	<g>
		<path class="st0" d="M317,216.21l-51.4,49.39c-2.93,2.93-6.77,4.39-10.6,4.39s-7.68-1.46-10.6-4.39l-49.4-49.4L25.71,385.49
			C31.58,388.3,38.07,390,45,390h422c6.93,0,13.41-1.7,19.28-4.51L317,216.21z"/>
	</g>
</g>
</svg>
