<?xml version="1.0" encoding="utf-8"?>
<!-- Generator: Adobe Illustrator 23.0.1, SVG Export Plug-In . SVG Version: 6.00 Build 0)  -->
<svg version="1.1" id="Camada_1" xmlns="http://www.w3.org/2000/svg" xmlns:xlink="http://www.w3.org/1999/xlink" x="0px" y="0px"
	 viewBox="0 0 114.9 104.6" style="enable-background:new 0 0 114.9 104.6;" xml:space="preserve">
<style type="text/css">
	.st0{fill:#828282;}
</style>
<g>
	
		<image style="overflow:visible;opacity:0.75;enable-background:new    ;" width="521" height="525" xlink:href="3A41191C.png"  transform="matrix(0.2386 0 0 0.2386 -1.6457 -6.3743)">
	</image>
	<g>
		<g>
			<path class="st0" d="M27.5,86.6c-3.8,0-7.5,0-11.2,0c-1,0-1.7-0.3-2.4-1c-2.1-2.2-4.4-4.3-6.5-6.6c-0.5-0.5-0.7-1.3-0.7-2
				c0-20.8,0-41.6,0-62.3c0-1.2,0-2.4,0-3.6c0-1.5,0.5-1.9,2-1.9c6,0,12,0,18,0c0.2,0,0.5,0,0.9-0.1c0-0.5,0-0.9,0-1.3
				c0-3.5,2.6-6.1,6.1-6.1c18.3,0,36.6,0,54.9,0c3.7,0,6.3,2.8,6.1,6.5c0,0.3,0,0.6,0.1,1c1.4,0,2.8,0,4.1,0c1.3,0,1.8,0.5,1.8,1.8
				c0,6.2,0,12.5,0,18.8c0,0.6-0.4,1.3-0.8,1.8c-1.4,1.5-2.9,2.9-4.3,4.4c-0.4,0.4-0.7,1.1-0.7,1.7c0,14.5,0,29,0,43.5
				c0,3.6,0.1,7.3-0.1,10.9c-0.2,3-2.8,5.1-5.8,5.1c-18.4,0-36.8,0-55.3,0c-3.4,0-5.9-2.8-5.9-6.3C27.5,89.4,27.5,88.1,27.5,86.6z
				 M30.5,85.4c1.9-0.1,3.7-0.3,5.5-0.3c17,0,33.9-0.1,50.9,0c3.5,0,4.8-0.7,4.8-4.8c-0.1-23.9-0.1-47.9,0-71.8c0-2.9-1.4-4-3.9-4
				c-17.8,0-35.5,0-53.3,0c-3,0-3.9,1-3.9,4c0,25.3,0,50.6,0,75.8C30.5,84.8,30.5,85.2,30.5,85.4z M17,83.5c3.5,0,6.9,0,10.4,0
				c0-7.9,0-15.8,0-23.8c-0.6,0-1.1,0-1.7,0c-2.3,0-4.6,0-6.9,0c-1,0-1.7-0.5-1.7-1.5s0.6-1.5,1.6-1.5s2,0,2.9,0c1.9,0,3.9,0,5.8,0
				c0-2.1,0-4,0-6c-1.1,0-2,0-3,0c-1.9,0-3.8,0-5.7,0c-1,0-1.6-0.5-1.6-1.5s0.6-1.4,1.6-1.5c0.5,0,1,0,1.5,0c2.4,0,4.8,0,7.3,0
				c0-2,0-3.9,0-6c-0.5,0-0.9,0-1.4,0c-2.4,0-4.9,0-7.3,0c-1,0-1.7-0.4-1.7-1.5c0-1,0.8-1.5,1.7-1.5c1.3,0,2.6,0,3.9,0
				c1.6,0,3.1,0,4.7,0c0-2,0-3.9,0-5.9c-2.8,0-5.6,0-8.3,0c-1.3,0-2-0.5-2-1.5s0.7-1.5,2-1.6c2.4,0,4.7,0,7.1,0c0.4,0,0.9,0,1.2-0.1
				c0-6,0-11.9,0-17.7c-6,0-11.8,0-17.8,0c0,21.4,0,42.6,0,64c1.9,0,3.6,0,5.4,0c1.4,0,2,0.5,2,2C17,79.8,17,81.6,17,83.5z
				 M88.6,88.2c0,0.9,0,1.7,0,2.5c0,1.3-0.6,1.9-1.9,1.9c-17.1,0-34.2,0-51.3,0c-1.4,0-2-0.6-2-2.1c0-0.8,0-1.6,0-2.4
				c-1.9,0.2-3,1.4-2.9,3c0,1.5,1.2,2.7,2.8,2.9c0.6,0.1,1.1,0.1,1.7,0.1c17.4,0,34.8,0,52.2,0c0.7,0,1.3,0,1.9-0.1
				c1.3-0.2,2.3-1.2,2.4-2.4c0.1-1.3,0-2.7,0-4.1C90.6,87.7,89.7,87.9,88.6,88.2z M85.6,88.1c-16.4,0-32.7,0-49,0c0,0.5,0,0.9,0,1.3
				c16.4,0,32.7,0,49,0C85.6,89,85.6,88.6,85.6,88.1z M94.7,12.1c0,6.7,0,13.3,0,19.8c0.1,0.1,0.2,0.2,0.3,0.2
				c0.5-0.6,0.9-1.3,1.5-1.8c0.9-0.8,1.2-1.6,1.1-2.8c-0.1-4.7,0-9.5,0-14.2c0-0.4,0-0.9,0-1.3C96.6,12.1,95.7,12.1,94.7,12.1z
				 M12.3,79.2c0.6,0.6,1.1,1.3,1.7,1.9c0-0.6,0-1.3,0-1.9C13.3,79.2,12.7,79.2,12.3,79.2z"/>
			<path class="st0" d="M60.2,27c-3.3,0-6.5,0-9.8,0c0.8,2.5,1.6,4.8,2.4,7.2c0.3,1,0.7,2,1,3c1.1,3.2-0.5,6.3-3.6,7.3
				c-3.2,1-6.7-0.7-7.5-3.9c-0.3-1-0.2-2.2,0.1-3.2c1.3-4.1,2.7-8.2,4-12.2c0.3-0.9,0.8-1.3,1.8-1.3c3.7,0,7.4,0,11.1,0
				c0.2,0,0.3,0,0.6-0.1c0-0.9,0-1.7,0-2.5c0-1.2,0.6-1.9,1.5-1.8c1.2,0.1,1.5,0.9,1.5,1.8c0,0.8,0,1.6,0,2.6c0.5,0,0.9,0,1.3,0
				c3.4,0,6.8,0,10.2,0c1.1,0,1.6,0.4,1.9,1.5c1.3,4,2.6,7.9,4,11.9c1.1,3.2-0.8,6.6-4.1,7.4c-3.7,0.9-7.2-1.7-7.4-5.5
				c0-0.4,0.1-0.8,0.2-1.2c1.1-3.3,2.3-6.7,3.4-10c0.1-0.3,0.2-0.6,0.2-1c-3.2,0-6.4,0-9.7,0c0,8.9,0,17.8,0,26.7
				c0.4,0,0.8,0.1,1.3,0.1c2.7,0,5.4,0,8.2,0c0.4,0,1-0.1,1.3,0.1c0.4,0.3,1,0.8,1,1.3s-0.5,1-0.9,1.4c-0.3,0.2-0.8,0.2-1.3,0.2
				c-7.5,0-14.9,0-22.4,0c-0.5,0-1.2-0.1-1.6-0.4c-0.3-0.3-0.6-1.2-0.4-1.5c0.4-0.5,1.1-1,1.7-1c2.9-0.1,5.8,0,8.6,0
				c0.4,0,0.9,0,1.4,0C60.2,44.8,60.2,35.9,60.2,27z M75.3,30.5c-0.1,0-0.2,0-0.3,0c-0.7,2.2-1.5,4.5-2.2,6.7c1.6,0,3.1,0,4.7,0
				C76.8,34.9,76,32.7,75.3,30.5z M48.3,30.2c-0.8,2.5-1.6,4.8-2.3,7.1c1.6,0,3.1,0,4.7,0C49.9,34.9,49.2,32.7,48.3,30.2z
				 M77.6,40.4c-1.7,0-3.2,0-4.8,0C74.1,42.3,76.2,42.3,77.6,40.4z M50.8,40.4c-1.7,0-3.2,0-4.8,0C47.2,42.3,49.3,42.3,50.8,40.4z"
				/>
			<path class="st0" d="M61.8,67.2c-5.8,0-11.5,0-17.3,0c-0.6,0-1.4-0.4-1.9-0.8c-0.2-0.2-0.2-1.1,0-1.4c0.4-0.4,1.1-0.8,1.7-0.8
				c11.6,0,23.2,0,34.8,0c1.3,0,2,0.5,2,1.5s-0.7,1.5-2.1,1.5C73.3,67.2,67.6,67.2,61.8,67.2L61.8,67.2z"/>
			<path class="st0" d="M61.6,71.7c-2.8,0-5.5,0-8.3,0c-1.3,0-2-0.5-2-1.5s0.6-1.5,1.9-1.5c5.6,0,11.3,0,16.9,0c1.3,0,2,0.5,2,1.4
				c0,1-0.7,1.5-2.1,1.5C67.3,71.7,64.4,71.7,61.6,71.7z"/>
		</g>
	</g>
</g>
</svg>
