<?xml version="1.0" encoding="utf-8"?>
<!-- Generator: Adobe Illustrator 23.0.1, SVG Export Plug-In . SVG Version: 6.00 Build 0)  -->
<svg version="1.1" id="Camada_1" xmlns="http://www.w3.org/2000/svg" xmlns:xlink="http://www.w3.org/1999/xlink" x="0px" y="0px"
	 viewBox="0 0 1610 306" style="enable-background:new 0 0 1610 306;" xml:space="preserve">
<style type="text/css">
	.st0{fill:#FFFFFF;}
</style>
<g>
	<g>
		<path class="st0" d="M276.3,128.3c4.73-1.19,9.42-2.36,14.58-3.65c0.17,3.52,0.32,6.63,0.5,10.29c1.91,0.12,3.69,0.31,5.47,0.32
			c13.94,0.05,27.89-0.08,41.82,0.17c4.26,0.08,5.6-1.38,5.35-5.5c-0.3-4.98-0.07-9.99-0.07-15.68c-9.62,0-18.64,0-27.65,0
			c-6.89,0-13.78,0.13-20.66-0.02c-10.68-0.24-15.11-3.64-15.91-14.08c-0.69-8.97-0.15-18.09,0.45-27.1
			c0.39-5.82,4.13-9.39,9.99-10.4c2.14-0.37,4.32-0.71,6.49-0.71c14.61-0.06,29.23-0.12,43.84-0.01c12.72,0.1,17.76,5.33,17.41,18
			c-0.04,1.37-0.93,3.52-1.97,3.93c-3.85,1.49-7.93,2.41-12.16,3.61c-0.38-1.08-0.73-1.65-0.78-2.25c-0.63-7.69-0.62-7.69-8.58-7.69
			c-11.42,0-22.85,0-34.27,0c-1.8,0-3.61,0-5.79,0c0,6.71,0,12.82,0,19.63c2.21,0,4.17,0,6.13,0c13.61-0.01,27.21-0.1,40.82-0.01
			c12.71,0.09,16.92,4.06,17.41,16.83c0.3,7.88,0.31,15.79-0.16,23.66c-0.56,9.41-4.98,13.75-14.44,13.93
			c-16.79,0.32-33.59,0.28-50.39,0.15c-12.32-0.09-16.16-3.76-17.38-16C276.11,133.39,276.3,131.04,276.3,128.3z"/>
		<path class="st0" d="M929,151.73c-7.76,0-13.95,0.14-20.13-0.1c-1.44-0.06-3.06-1.17-4.2-2.24c-3.3-3.09-6.4-6.4-9.82-9.86
			c-0.86,0.74-1.74,1.23-2.25,1.98c-5.87,8.47-13.93,11.22-24.03,10.38c-8.01-0.67-16.13,0-24.18-0.29
			c-9.73-0.35-13.89-4.52-14.84-14.2c-0.1-1-0.14-2.02-0.28-3.01c-1.89-12.78,1.11-23.21,13.43-29.69c3.65-1.92,6.77-4.87,10.6-7.69
			c-6.73-7.12-7.19-15.42-5.66-24.16c0.98-5.59,4-9.66,9.72-9.98c10.02-0.55,20.12-0.88,30.12-0.23c7.16,0.46,9.86,3.84,10.72,11.17
			c1.57,13.31,2.38,11.54-12.3,13.8c-0.2-3.66-0.4-7.28-0.62-11.23c-8.07,0-15.85,0-24.59,0c0.52,2.68,0.16,5.78,1.54,7.18
			c11.2,11.32,22.72,22.33,34.79,34.07c4.94-5.47,10.19-11.28,15.41-17.05c3.86,3.85,6.9,6.89,10.17,10.15
			c-5.65,5.22-11.39,10.53-17.64,16.31C913.34,135.64,920.63,143.14,929,151.73z M884.21,129.59c-7.65-7.42-15.17-14.71-22.9-22.2
			c-4.84,3.63-10.37,7.7-15.79,11.93c-0.94,0.73-1.87,2.1-1.92,3.21c-0.22,4.46-0.09,8.93-0.09,13.94c9.35,0,18.08-0.5,26.71,0.16
			C877.05,137.15,881.34,134.46,884.21,129.59z"/>
		<path class="st0" d="M1468.32,151.68c-8.72-0.01-17.45,0.19-26.17-0.06c-8.75-0.25-12.35-3.52-12.55-12.29
			c-0.38-16.26-0.44-32.54-0.09-48.79c0.19-8.63,3.52-12.02,12.14-12.21c17.77-0.38,35.57-0.36,53.34,0.04
			c8.84,0.2,12.06,3.05,12.36,11.94c0.56,16.57,0.5,33.19-0.12,49.76c-0.32,8.56-4.05,11.36-12.74,11.58
			C1485.77,151.86,1477.04,151.69,1468.32,151.68z M1492.78,92.47c-0.58-0.29-0.87-0.56-1.16-0.56
			c-14.92-0.08-29.84-0.22-44.75-0.03c-1.05,0.01-2.94,2.46-2.97,3.8c-0.24,12.74-0.09,25.49-0.23,38.23
			c-0.03,3.13,1.2,4.04,4.16,4.01c9.22-0.12,18.45-0.04,27.67-0.04c5.65,0,11.3,0,17.29,0
			C1492.78,122.31,1492.78,107.32,1492.78,92.47z"/>
		<path class="st0" d="M427.3,151.72c-8.39,0-16.78,0.15-25.17-0.04c-9.42-0.22-13.05-2.84-13.37-12.01
			c-0.59-16.74-0.47-33.53,0.07-50.27c0.24-7.65,3.45-10.75,11.17-10.94c18.44-0.44,36.91-0.45,55.35,0.01
			c7.83,0.2,11.02,3.67,11.18,11.49c0.36,16.59,0.37,33.21-0.03,49.8c-0.2,8.35-3.98,11.6-12.52,11.84
			c-8.89,0.26-17.78,0.06-26.68,0.06C427.3,151.68,427.3,151.7,427.3,151.72z M403.33,91.66c0,15.61,0,30.61,0,45.58
			c0.77,0.25,1.23,0.53,1.69,0.53c14.59,0.05,29.18,0.01,43.77,0.15c3.54,0.03,3.57-2.03,3.56-4.57
			c-0.05-12.24-0.2-24.49,0.03-36.73c0.08-4.14-1.51-5.09-5.28-5.02c-10.56,0.19-21.13,0.06-31.7,0.06
			C411.44,91.66,407.46,91.66,403.33,91.66z"/>
		<path class="st0" d="M1391.49,98.96c-0.18-2.81-0.31-4.95-0.49-7.77c-7.84,0-15.51,0-23.19,0c-5.04,0-10.08,0.09-15.11-0.03
			c-2.58-0.06-3.44,0.97-3.63,3.52c-0.95,12.34-1.02,12.35,11.37,12.41c9.91,0.04,19.81-0.1,29.72,0.06
			c10.42,0.17,13.81,3.45,14.23,13.95c0.25,6.2,0.21,12.43-0.16,18.62c-0.49,8.14-3.93,11.69-12.02,11.83
			c-15.44,0.26-30.89,0.27-46.33,0.01c-11.34-0.19-12.54-8.11-12.17-17.37c0.03-0.83,1.64-2,2.72-2.3c3.03-0.84,6.17-1.31,9.77-2.02
			c0.22,2.81,0.4,5.24,0.62,8.1c14.63,0,29.13,0,44.11,0c0-5.31,0-10.7,0-16.76c-2.84,0-5.64,0.01-8.44,0
			c-10.75-0.02-21.5,0.12-32.24-0.13c-9.63-0.22-13.22-3.33-13.96-12.84c-0.51-6.64-0.04-13.4,0.43-20.07
			c0.39-5.6,3.91-8.68,9.41-9.51c1.33-0.2,2.66-0.51,3.99-0.51c13.26-0.02,26.53-0.22,39.79,0.11c9.95,0.24,13.55,4.23,14.12,13.93
			c0.16,2.7-0.73,4.02-3.35,4.54C1397.72,97.31,1394.82,98.14,1391.49,98.96z"/>
		<path class="st0" d="M1533.73,151.76c0-24.83,0-48.93,0-73.24c5.91-1.14,10.48-0.38,15.06,4.21
			c13.89,13.91,28.36,27.23,42.61,40.77c0.95,0.91,1.97,1.75,3.98,3.51c0-16.82,0-32.58,0-48.63c4.79,0,8.74,0,13.07,0
			c0,24.25,0,48.35,0,72.77c-5.22,1.1-9.69,1.18-14.07-3.19c-13.9-13.89-28.21-27.38-42.37-41.01c-1.3-1.26-2.68-2.44-4.84-4.41
			c-0.14,2.72-0.31,4.47-0.32,6.22c-0.04,12.43-0.26,24.87,0.04,37.3c0.12,4.77-1.54,6.29-6.03,5.75
			C1538.72,151.55,1536.52,151.76,1533.73,151.76z"/>
		<path class="st0" d="M550.02,78.36c5.25,0,9.55,0,14.21,0c0.16,1.67,0.41,3.12,0.41,4.57c0.01,17.3-0.02,34.59-0.06,51.89
			c-0.01,2.01-0.08,4.04-0.33,6.03c-0.89,6.94-4.13,10.49-11.13,10.62c-16.28,0.3-32.57,0.29-48.85,0.01
			c-6.81-0.12-9.48-2.96-10.9-9.65c-0.17-0.82-0.38-1.65-0.39-2.48c-0.02-20.14-0.02-40.27-0.02-60.83c4.71,0,9.3,0,14.55,0
			c0,19.73,0,39.45,0,59.9c7.12,0,13.62,0,20.11,0c5.88,0,11.76-0.2,17.63,0.07c3.78,0.18,4.93-1.14,4.89-4.88
			c-0.18-16.46-0.1-32.91-0.12-49.37C550.02,82.43,550.02,80.62,550.02,78.36z"/>
		<path class="st0" d="M1102.8,78.35c5.11,0,9.57,0,14.71,0c0,2.22,0,4.19,0,6.15c-0.02,16.28,0.07,32.57-0.13,48.85
			c-0.05,3.95,1.17,5.23,5.15,5.14c10.74-0.24,21.49-0.28,32.23,0.01c4.36,0.12,5.33-1.49,5.29-5.51
			c-0.19-16.45-0.1-32.9-0.09-49.36c0-1.64,0.15-3.27,0.24-5.22c4.8,0,9.23,0,13.96,0c0.15,1.47,0.38,2.76,0.38,4.05
			c0,17.8,0.07,35.59-0.08,53.39c-0.11,12.47-3.54,15.8-15.99,15.88c-13.43,0.08-26.86,0.09-40.29-0.01
			c-11.65-0.09-15.24-3.48-15.34-14.93C1102.68,117.51,1102.8,98.22,1102.8,78.35z"/>
		<path class="st0" d="M658.67,78.5c-1.99,4.32-2.87,8.1-5.08,10.75c-12.49,14.94-25.3,29.6-37.99,44.37
			c-1.08,1.25-2.08,2.56-3.82,4.71c15.46,0,30.06,0,44.96,0c0,4.64,0,8.59,0,12.99c-22.52,0-45.03,0-67.69,0
			c-0.95-4.26-0.36-7.68,2.65-11.13c12.14-13.91,23.99-28.07,35.94-42.14c1.6-1.89,3.14-3.83,5.47-6.69c-13.89,0-26.67,0-39.81,0
			c0-4.58,0-8.52,0-12.86C614.43,78.5,635.46,78.5,658.67,78.5z"/>
		<path class="st0" d="M757.94,151.29c-1.12,0.23-1.6,0.39-2.1,0.41c-13.48,0.71-13.62,0.77-19.18-11.51
			c-1.64-3.61-3.65-4.88-7.61-4.76c-10.07,0.3-20.17,0.29-30.24,0c-3.83-0.11-6.01,1.13-7.09,4.69c-0.29,0.95-0.83,1.83-1.26,2.74
			c-4.75,10.04-6.02,10.63-18.1,8.18c0.67-1.56,1.26-3.08,1.97-4.54c10.37-21.28,20.83-42.51,31.07-63.85
			c1.58-3.29,3.41-4.36,7.1-4.74c7.07-0.73,10.58,1.81,13.6,8.33c9.32,20.09,19.52,39.78,29.37,59.64
			C756.26,147.5,756.97,149.17,757.94,151.29z M713.98,91.34c-4.85,10.91-9.18,20.63-13.69,30.77c9.54,0,18.32,0,27.95,0
			C723.5,111.88,719.02,102.22,713.98,91.34z"/>
		<path class="st0" d="M1010.04,151.29c0-29.82,0-59.27,0-89.06c5.58,0,10.86,0,16.77,0c0,24.18,0,48.25,0,72.99
			c18.8,0,36.98,0,55.45,0c0,5.65,0,10.62,0,16.06C1058.41,151.29,1034.55,151.29,1010.04,151.29z"/>
		<path class="st0" d="M1236.25,131.66c4.31-9.5,8.23-18.15,12.15-26.8c3.39-7.48,6.93-14.91,10.12-22.48
			c1.35-3.21,3.07-4.74,6.7-4.35c3.13,0.33,6.33,0.07,10.33,0.07c-0.9,2.09-1.48,3.58-2.16,5.02
			c-10.25,21.5-20.57,42.97-30.72,64.51c-1.39,2.95-2.97,4.43-6.4,4.21c-3.38-0.22-6.11-0.07-8.05-4.07
			c-10.54-21.73-21.48-43.26-32.26-64.87c-0.66-1.32-1.16-2.71-2.03-4.78c5.18,0,9.82-0.25,14.41,0.16c1.3,0.12,2.87,1.97,3.57,3.39
			c7.3,14.92,14.44,29.91,21.64,44.87C1234.24,128,1235.05,129.4,1236.25,131.66z"/>
		<path class="st0" d="M1307.02,152.3c-4.92,0-9.4,0-14.23,0c0-24.62,0-49.03,0-73.84c4.58,0,9.18,0,14.23,0
			C1307.02,102.84,1307.02,127.37,1307.02,152.3z"/>
		<path class="st0" d="M277.44,256.13c6.59-14.37,12.92-28.38,19.45-42.29c1.47-3.13,8.52-2.96,10.02,0.21
			c6.56,13.9,12.96,27.87,19.45,41.88c-7.99,2.12-8.83,1.89-11.69-5.01c-1.23-2.97-2.88-4.03-6.01-3.88
			c-4.68,0.23-9.39,0.25-14.07,0c-3.48-0.19-5.82,0.7-6.63,4.37C286.74,257.01,283.03,257.81,277.44,256.13z M301.52,220.58
			c-2.79,6.37-5.22,11.9-7.79,17.77c5.56,0,10.24,0,15.37,0C306.54,232.35,304.25,226.96,301.52,220.58z"/>
		<path class="st0" d="M967.64,235.59c0,5.04,0.07,9.56-0.02,14.06c-0.09,4.59-2.27,7.17-7.13,7.13c-7.55-0.05-15.1,0.11-22.64-0.05
			c-5.46-0.11-7.2-1.81-7.35-7.37c-0.2-7.37-0.22-14.76,0.02-22.13c0.18-5.48,2.01-7.1,7.53-7.2c7.21-0.12,14.42-0.11,21.64-0.01
			c6.47,0.09,8,1.93,7.58,9.02c-1.81,0.45-3.72,0.92-5.63,1.39c0.08-0.44,0.16-0.89,0.24-1.33c-2.09-0.81-4.14-2.19-6.26-2.31
			c-5.65-0.33-11.34-0.11-17.44-0.11c0,7.74,0,15,0,22.63c7.32,0,14.56,0,22.09,0c0-2.37,0-4.46,0-7.01
			c-3.78-0.19-7.39-0.37-11.33-0.57c0-2.12,0-4,0-6.15C955.08,235.59,961.05,235.59,967.64,235.59z"/>
		<path class="st0" d="M786.43,256.75c-4.2-0.01-8.4-0.01-12.6,0c-4.11,0.01-6.4-2.22-6.5-6.12c-0.22-8.05-0.23-16.12-0.05-24.18
			c0.1-4.43,2.7-6.53,7.24-6.46c8.06,0.11,16.13,0.09,24.19,0.01c4.56-0.04,6.95,2.09,6.99,6.63c0.06,7.89,0.06,15.78-0.02,23.67
			c-0.04,4.29-2.36,6.45-6.65,6.46C794.83,256.76,790.63,256.76,786.43,256.75z M798.21,249.44c0-7.77,0-14.93,0-22.7
			c-7.23,0-14.23-0.08-21.24,0.11c-0.84,0.02-2.31,1.54-2.33,2.39c-0.2,6.65-0.11,13.31-0.11,20.2
			C782.74,249.44,790.23,249.44,798.21,249.44z"/>
		<path class="st0" d="M1431.5,256.77c-4.03,0-8.06-0.02-12.09,0.01c-4.29,0.03-6.75-2.14-6.85-6.34
			c-0.18-8.06-0.18-16.12,0.02-24.18c0.1-4.19,2.56-6.31,6.88-6.27c8.23,0.08,16.46,0.08,24.69,0.04c4.6-0.02,6.84,2.24,6.83,6.76
			c-0.01,7.89-0.06,15.78-0.12,23.68c-0.03,4.12-2.21,6.19-6.26,6.25c-4.37,0.07-8.73,0.01-13.1,0.01
			C1431.5,256.76,1431.5,256.77,1431.5,256.77z M1419.75,249.24c8.39,0,15.99,0,23.7,0c0-7.6,0-14.75,0-22.48
			c-7.24,0-14.25-0.1-21.25,0.13c-0.85,0.03-2.3,1.86-2.34,2.89C1419.64,236.12,1419.75,242.47,1419.75,249.24z"/>
		<path class="st0" d="M448.88,257.33c0-13.06,0-24.87,0-36.91c8.61,0,16.99-0.65,25.22,0.19c7.6,0.78,12.07,7.31,12.59,15.94
			c0.59,9.73-2.99,17.27-10.76,18.73C467.2,256.92,458.13,256.72,448.88,257.33z M456.36,226.88c0,7.69,0,15.12,0,23.4
			c5.57-0.4,10.76-0.35,15.79-1.24c4.99-0.88,7.22-5.21,7-11.79c-0.2-6.07-2.45-9.66-7.54-10.24
			C466.71,226.44,461.69,226.88,456.36,226.88z"/>
		<path class="st0" d="M1251.58,220.24c8.29,0,16.19-0.48,24,0.13c8.51,0.66,13.48,7.32,13.78,16.98
			c0.33,10.54-4.34,17.25-13.4,18.94c-2.45,0.46-5.01,0.48-7.52,0.51c-5.5,0.07-11,0.02-16.85,0.02
			C1251.58,244.45,1251.58,232.63,1251.58,220.24z M1258.83,249.45c5.18,0,9.86,0.44,14.43-0.11c6.17-0.74,8.86-4.86,8.67-11.96
			c-0.18-6.71-3.15-10.26-9.42-10.78c-3.49-0.29-7.05-0.32-10.53,0.01c-1.12,0.11-2.97,1.72-3.01,2.7
			C1258.7,235.97,1258.83,242.64,1258.83,249.45z"/>
		<path class="st0" d="M1130.77,256.2c-5.34,1.39-8.62,0.77-10.34-4.25c-0.5-1.46-2.97-2.82-4.73-3.13
			c-2.92-0.51-6.02,0.04-9.02-0.19c-4.69-0.36-8.29,0.23-10.1,5.65c-0.55,1.66-4.25,2.27-6.5,3.36c-0.4-0.5-0.8-0.99-1.2-1.49
			c1.42-3.08,2.81-6.17,4.27-9.23c3.82-8,7.63-16.01,11.52-23.97c1.76-3.6,7.56-4.49,9.22-1.24
			C1119.63,233.02,1125.06,244.47,1130.77,256.2z M1116.07,241.88c-2.39-5.27-4.42-9.76-6.86-15.17c-2.36,5.49-4.35,10.1-6.54,15.17
			C1107.49,241.88,1111.31,241.88,1116.07,241.88z"/>
		<path class="st0" d="M627.29,246.61c3.51-7.85,6.88-14.62,9.55-21.66c1.73-4.56,4.32-5.95,9.41-4.35
			c-1.56,3.48-3.07,6.92-4.64,10.32c-3.6,7.77-7.16,15.56-10.88,23.26c-1.71,3.54-5.58,3.85-7.26,0.51
			c-5.65-11.22-11.07-22.55-16.76-34.19c5.07-1.09,8.48-0.93,10.54,4.59C619.87,232.13,623.56,238.76,627.29,246.61z"/>
	</g>
	<path class="st0" d="M1575.98,246.54c1.95-0.49,3.88-0.97,6.01-1.51c0.07,1.45,0.13,2.73,0.2,4.24c0.79,0.05,1.52,0.13,2.25,0.13
		c5.74,0.02,11.49-0.03,17.23,0.07c1.76,0.03,2.31-0.57,2.21-2.27c-0.12-2.05-0.03-4.11-0.03-6.46c-3.96,0-7.68,0-11.39,0
		c-2.84,0-5.67,0.05-8.51-0.01c-4.4-0.1-6.22-1.5-6.55-5.8c-0.29-3.7-0.06-7.45,0.18-11.16c0.16-2.4,1.7-3.87,4.11-4.28
		c0.88-0.15,1.78-0.29,2.67-0.29c6.02-0.03,12.04-0.05,18.06,0c5.24,0.04,7.32,2.2,7.17,7.41c-0.02,0.57-0.38,1.45-0.81,1.62
		c-1.59,0.62-3.27,0.99-5.01,1.49c-0.16-0.44-0.3-0.68-0.32-0.93c-0.26-3.17-0.26-3.17-3.54-3.17c-4.7,0-9.41,0-14.11,0
		c-0.74,0-1.49,0-2.39,0c0,2.76,0,5.28,0,8.08c0.91,0,1.72,0,2.52,0c5.6,0,11.21-0.04,16.81,0c5.24,0.04,6.97,1.67,7.17,6.93
		c0.12,3.24,0.13,6.51-0.06,9.74c-0.23,3.87-2.05,5.66-5.95,5.74c-6.92,0.13-13.84,0.11-20.76,0.06c-5.08-0.04-6.65-1.55-7.16-6.59
		C1575.89,248.63,1575.98,247.66,1575.98,246.54z"/>
	<g>
		<path class="st0" d="M0.32-0.09c72.01,0,143.73,0,215.68,0c0,23.91,0,47.6,0,71.8c-63.9,0-127.71,0-191.91,0
			c0,43.41,0,86.3,0,129.48c-8.06,0-15.73,0-23.77,0C0.32,134.26,0.32,67.25,0.32-0.09z"/>
		<path class="st0" d="M0,306.09c0-1.64,0-2.96,0-4.28c0-22.27,0-44.53,0-67.29c64.06,0,127.87,0,192.03,0c0-43.39,0-86.29,0-129.53
			c8.11,0,15.88,0,23.91,0c0,66.95,0,133.86,0,201.1C144.15,306.09,72.34,306.09,0,306.09z"/>
		<path class="st0" d="M108.21,203.27c-28.09-0.22-50.45-22.63-50.34-50.42c0.11-27.8,22.84-50.19,50.76-50.02
			c28.05,0.17,50.12,22.86,49.86,51.25C158.24,181.19,135.46,203.49,108.21,203.27z"/>
	</g>
</g>
</svg>
