<?xml version="1.0" encoding="utf-8"?>
<!-- Generator: Adobe Illustrator 23.0.1, SVG Export Plug-In . SVG Version: 6.00 Build 0)  -->
<svg version="1.1" id="Camada_1" xmlns="http://www.w3.org/2000/svg" xmlns:xlink="http://www.w3.org/1999/xlink" x="0px" y="0px"
	 viewBox="0 0 1610 306" style="enable-background:new 0 0 1610 306;" xml:space="preserve">
<style type="text/css">
	.st0{fill:url(#SVGID_1_);}
	.st1{fill:#C1102F;}
	.st2{fill:url(#SVGID_2_);}
	.st3{fill:#231F20;}
	.st4{fill:url(#SVGID_3_);}
	.st5{fill:url(#SVGID_4_);}
	.st6{fill:url(#SVGID_5_);}
</style>
<g>
	
		<image style="overflow:visible;opacity:0.66;enable-background:new    ;" width="1598" height="324" xlink:href="89CDFB8.png"  transform="matrix(1 0 0 1 8 -4)">
	</image>
	<g>
		<g>
			<g>
				<g>
					
						<radialGradient id="SVGID_1_" cx="328.7484" cy="196.011" r="42.2055" gradientTransform="matrix(1 0 0 -1 0 305.8898)" gradientUnits="userSpaceOnUse">
						<stop  offset="0" style="stop-color:#FF102F"/>
						<stop  offset="0.1046" style="stop-color:#EE102F"/>
						<stop  offset="0.3" style="stop-color:#D5102F"/>
						<stop  offset="0.4781" style="stop-color:#C6102F"/>
						<stop  offset="0.6222" style="stop-color:#C1102F"/>
						<stop  offset="1" style="stop-color:#BD102F"/>
					</radialGradient>
					<path class="st0" d="M288.4,130.9c4.6-1.2,9.2-2.3,14.2-3.6c0.2,3.4,0.3,6.5,0.5,10.1c1.9,0.1,3.6,0.3,5.4,0.3
						c13.6,0.1,27.3-0.1,40.9,0.2c4.2,0.1,5.5-1.4,5.2-5.4c-0.3-4.9-0.1-9.8-0.1-15.3c-9.4,0-18.2,0-27,0c-6.7,0-13.5,0.1-20.2,0
						c-10.4-0.2-14.8-3.6-15.5-13.8c-0.7-8.8-0.1-17.7,0.4-26.5c0.4-5.7,4-9.2,9.8-10.2c2.1-0.4,4.2-0.7,6.3-0.7
						c14.3-0.1,28.6-0.1,42.8,0c12.4,0.1,17.4,5.2,17,17.6c0,1.3-0.9,3.4-1.9,3.8c-3.8,1.5-7.8,2.3-11.9,3.5
						c-0.4-1.1-0.7-1.6-0.8-2.2c-0.6-7.5-0.6-7.5-8.4-7.5c-11.2,0-22.3,0-33.5,0c-1.8,0-3.5,0-5.7,0c0,6.6,0,12.5,0,19.2
						c2.2,0,4.1,0,6,0c13.3,0,26.6-0.1,39.9,0c12.4,0.1,16.5,4,17,16.4c0.3,7.7,0.3,15.4-0.1,23.1c-0.5,9.2-4.9,13.4-14.1,13.6
						c-16.4,0.3-32.8,0.3-49.2,0.1c-12-0.1-15.8-3.7-17-15.6C288.2,135.8,288.4,133.5,288.4,130.9z"/>
				</g>
				<g>
					<g>
						<path class="st1" d="M926.2,153.8c-7.6,0-13.6,0.1-19.7-0.1c-1.4-0.1-3-1.1-4.1-2.2c-3.2-3-6.3-6.3-9.6-9.6
							c-0.8,0.7-1.7,1.2-2.2,1.9c-5.7,8.3-13.6,11-23.5,10.1c-7.8-0.7-15.8,0-23.6-0.3c-9.5-0.4-13.6-4.4-14.5-13.9
							c-0.1-1-0.1-2-0.3-2.9c-1.8-12.5,1.1-22.7,13.1-29c3.6-1.9,6.6-4.8,10.4-7.5c-6.6-7-7-15.1-5.5-23.6c1-5.5,3.9-9.4,9.5-9.8
							c9.8-0.5,19.7-0.9,29.4-0.2c7,0.4,9.6,3.8,10.5,10.9c1.5,13,2.3,11.3-12,13.5c-0.2-3.6-0.4-7.1-0.6-11c-7.9,0-15.5,0-24,0
							c0.5,2.6,0.2,5.7,1.5,7c10.9,11.1,22.2,21.8,34,33.3c4.8-5.3,10-11,15-16.7c3.8,3.8,6.7,6.7,9.9,9.9
							c-5.5,5.1-11.1,10.3-17.2,15.9C910.9,138,918,145.4,926.2,153.8z M882.4,132.1c-7.5-7.3-14.8-14.4-22.4-21.7
							c-4.7,3.6-10.1,7.5-15.4,11.7c-0.9,0.7-1.8,2.1-1.9,3.1c-0.2,4.4-0.1,8.7-0.1,13.6c9.1,0,17.7-0.5,26.1,0.1
							C875.4,139.5,879.6,136.9,882.4,132.1z"/>
					</g>
				</g>
				<g>
					<g>
						<path class="st1" d="M1453.1,153.7c-8.5,0-17.1,0.2-25.6-0.1c-8.5-0.2-12.1-3.4-12.3-12c-0.4-15.9-0.4-31.8-0.1-47.7
							c0.2-8.4,3.4-11.8,11.9-11.9c17.4-0.4,34.8-0.3,52.1,0c8.6,0.2,11.8,3,12.1,11.7c0.6,16.2,0.5,32.4-0.1,48.6
							c-0.3,8.4-4,11.1-12.4,11.3C1470.2,153.9,1461.6,153.7,1453.1,153.7z M1477,95.9c-0.6-0.3-0.8-0.5-1.1-0.5
							c-14.6-0.1-29.2-0.2-43.7,0c-1,0-2.9,2.4-2.9,3.7c-0.2,12.4-0.1,24.9-0.2,37.4c0,3.1,1.2,3.9,4.1,3.9c9-0.1,18,0,27,0
							c5.5,0,11,0,16.9,0C1477,125,1477,110.4,1477,95.9z"/>
					</g>
				</g>
				
					<radialGradient id="SVGID_2_" cx="436.2441" cy="188.0641" r="61.1963" fx="416.7412" fy="189.3566" gradientTransform="matrix(1 0 0 -1 0 305.8898)" gradientUnits="userSpaceOnUse">
					<stop  offset="0.6222" style="stop-color:#C1102F"/>
					<stop  offset="1" style="stop-color:#BD102F"/>
				</radialGradient>
				<path class="st2" d="M436,153.8c-8.2,0-16.4,0.1-24.6,0c-9.2-0.2-12.8-2.8-13.1-11.7c-0.6-16.4-0.5-32.8,0.1-49.1
					c0.2-7.5,3.4-10.5,10.9-10.7c18-0.4,36.1-0.4,54.1,0c7.6,0.2,10.8,3.6,10.9,11.2c0.4,16.2,0.4,32.4,0,48.7
					c-0.2,8.2-3.9,11.3-12.2,11.6C453.4,153.9,444.6,153.7,436,153.8C436,153.7,436,153.7,436,153.8z M412.5,95.1
					c0,15.3,0,29.9,0,44.5c0.8,0.2,1.2,0.5,1.7,0.5c14.3,0.1,28.5,0,42.8,0.1c3.5,0,3.5-2,3.5-4.5c0-12-0.2-23.9,0-35.9
					c0.1-4.1-1.5-5-5.2-4.9c-10.3,0.2-20.6,0.1-31,0.1C420.5,95.1,416.6,95.1,412.5,95.1z"/>
				<g>
					<path class="st1" d="M1378,102.2c-0.2-2.7-0.3-4.8-0.5-7.6c-7.7,0-15.2,0-22.7,0c-4.9,0-9.8,0.1-14.8,0
						c-2.5-0.1-3.4,0.9-3.6,3.4c-0.9,12.1-1,12.1,11.1,12.1c9.7,0,19.4-0.1,29,0.1c10.2,0.2,13.5,3.4,13.9,13.6
						c0.2,6.1,0.2,12.2-0.2,18.2c-0.5,8-3.8,11.4-11.8,11.6c-15.1,0.3-30.2,0.3-45.3,0c-11.1-0.2-12.3-7.9-11.9-17
						c0-0.8,1.6-2,2.7-2.3c3-0.8,6-1.3,9.5-2c0.2,2.8,0.4,5.1,0.6,7.9c14.3,0,28.5,0,43.1,0c0-5.2,0-10.4,0-16.4c-2.8,0-5.5,0-8.2,0
						c-10.5,0-21,0.1-31.5-0.1c-9.4-0.2-12.9-3.3-13.6-12.6c-0.5-6.5,0-13.1,0.4-19.6c0.4-5.5,3.8-8.5,9.2-9.3
						c1.3-0.2,2.6-0.5,3.9-0.5c13,0,25.9-0.2,38.9,0.1c9.7,0.2,13.2,4.1,13.8,13.6c0.2,2.6-0.7,3.9-3.3,4.4
						C1384.1,100.6,1381.3,101.4,1378,102.2z"/>
				</g>
				<g>
					<path class="st1" d="M1517,153.8c0-24.3,0-47.8,0-71.6c5.8-1.1,10.2-0.4,14.7,4.1c13.6,13.6,27.7,26.6,41.6,39.8
						c0.9,0.9,1.9,1.7,3.9,3.4c0-16.4,0-31.8,0-47.5c4.7,0,8.5,0,12.8,0c0,23.7,0,47.2,0,71.1c-5.1,1.1-9.5,1.2-13.8-3.1
						c-13.6-13.6-27.6-26.8-41.4-40.1c-1.3-1.2-2.6-2.4-4.7-4.3c-0.1,2.7-0.3,4.4-0.3,6.1c0,12.2-0.3,24.3,0,36.4
						c0.1,4.7-1.5,6.1-5.9,5.6C1521.9,153.6,1519.8,153.8,1517,153.8z"/>
				</g>
				<g>
					<path class="st1" d="M555.9,82.1c5.1,0,9.3,0,13.9,0c0.2,1.6,0.4,3.1,0.4,4.5c0,16.9,0,33.8-0.1,50.7c0,2-0.1,3.9-0.3,5.9
						c-0.9,6.8-4,10.3-10.9,10.4c-15.9,0.3-31.8,0.3-47.7,0c-6.7-0.1-9.3-2.9-10.6-9.4c-0.2-0.8-0.4-1.6-0.4-2.4
						c0-19.7,0-39.4,0-59.4c4.6,0,9.1,0,14.2,0c0,19.3,0,38.5,0,58.5c7,0,13.3,0,19.7,0c5.7,0,11.5-0.2,17.2,0.1
						c3.7,0.2,4.8-1.1,4.8-4.8c-0.2-16.1-0.1-32.2-0.1-48.2C555.9,86,555.9,84.3,555.9,82.1z"/>
				</g>
				<g>
					<path class="st1" d="M1096,82.1c5,0,9.3,0,14.4,0c0,2.2,0,4.1,0,6c0,15.9,0.1,31.8-0.1,47.7c-0.1,3.9,1.1,5.1,5,5
						c10.5-0.2,21-0.3,31.5,0c4.3,0.1,5.2-1.5,5.2-5.4c-0.2-16.1-0.1-32.2-0.1-48.2c0-1.6,0.1-3.2,0.2-5.1c4.7,0,9,0,13.6,0
						c0.1,1.4,0.4,2.7,0.4,3.9c0,17.4,0.1,34.8-0.1,52.2c-0.1,12.2-3.4,15.4-15.6,15.5c-13.1,0.1-26.3,0.1-39.4,0
						c-11.4-0.1-14.9-3.4-15-14.6C1095.9,120.3,1096,101.5,1096,82.1z"/>
				</g>
				<g>
					<path class="st1" d="M662,82.2c-1.9,4.2-2.8,7.9-5,10.5c-12.2,14.6-24.7,28.9-37.1,43.3c-1,1.2-2,2.5-3.7,4.6
						c15.1,0,29.4,0,43.9,0c0,4.5,0,8.4,0,12.7c-22,0-44,0-66.1,0c-0.9-4.2-0.3-7.5,2.6-10.9c11.9-13.6,23.4-27.4,35.1-41.2
						c1.6-1.8,3.1-3.7,5.3-6.5c-13.6,0-26.1,0-38.9,0c0-4.5,0-8.3,0-12.6C618.8,82.2,639.3,82.2,662,82.2z"/>
				</g>
				<g>
					<g>
						<path class="st1" d="M759,153.3c-1.1,0.2-1.6,0.4-2,0.4c-13.2,0.7-13.3,0.8-18.7-11.3c-1.6-3.5-3.6-4.8-7.4-4.6
							c-9.8,0.3-19.7,0.3-29.5,0c-3.7-0.1-5.9,1.1-6.9,4.6c-0.3,0.9-0.8,1.8-1.2,2.7c-4.6,9.8-5.9,10.4-17.7,8
							c0.7-1.5,1.2-3,1.9-4.4c10.1-20.8,20.3-41.5,30.3-62.4c1.5-3.2,3.3-4.3,6.9-4.6c6.9-0.7,10.3,1.8,13.3,8.1
							c9.1,19.6,19.1,38.9,28.7,58.3C757.4,149.6,758.1,151.3,759,153.3z M716.1,94.7c-4.7,10.7-9,20.2-13.4,30.1
							c9.3,0,17.9,0,27.3,0C725.4,114.8,721,105.4,716.1,94.7z"/>
					</g>
				</g>
				<g>
					<path class="st1" d="M1005.3,153.3c0-29.1,0-57.9,0-87c5.5,0,10.6,0,16.4,0c0,23.6,0,47.1,0,71.3c18.4,0,36.1,0,54.2,0
						c0,5.5,0,10.4,0,15.7C1052.6,153.3,1029.3,153.3,1005.3,153.3z"/>
				</g>
				<g>
					<path class="st1" d="M1226.4,134.1c4.2-9.3,8-17.7,11.9-26.2c3.3-7.3,6.8-14.6,9.9-22c1.3-3.1,3-4.6,6.5-4.3
						c3.1,0.3,6.2,0.1,10.1,0.1c-0.9,2-1.4,3.5-2.1,4.9c-10,21-20.1,42-30,63c-1.4,2.9-2.9,4.3-6.3,4.1c-3.3-0.2-6-0.1-7.9-4
						c-10.3-21.2-21-42.3-31.5-63.4c-0.6-1.3-1.1-2.7-2-4.7c5.1,0,9.6-0.3,14.1,0.2c1.3,0.1,2.8,1.9,3.5,3.3
						c7.1,14.6,14.1,29.2,21.1,43.8C1224.4,130.6,1225.2,131.9,1226.4,134.1z"/>
				</g>
				<g>
					<path class="st1" d="M1295.5,154.3c-4.8,0-9.2,0-13.9,0c0-24.1,0-47.9,0-72.2c4.5,0,9,0,13.9,0
						C1295.5,106,1295.5,130,1295.5,154.3z"/>
				</g>
				<g>
					<g>
						<path class="st3" d="M289.5,255.8c6.4-14,12.6-27.7,19-41.3c1.4-3.1,8.3-2.9,9.8,0.2c6.4,13.6,12.7,27.2,19,40.9
							c-7.8,2.1-8.6,1.9-11.4-4.9c-1.2-2.9-2.8-3.9-5.9-3.8c-4.6,0.2-9.2,0.2-13.8,0c-3.4-0.2-5.7,0.7-6.5,4.3
							C298.6,256.6,295,257.4,289.5,255.8z M313.1,221c-2.7,6.2-5.1,11.6-7.6,17.4c5.4,0,10,0,15,0C318,232.5,315.7,227.3,313.1,221
							z"/>
					</g>
				</g>
				<g>
					<path class="st3" d="M963.9,235.7c0,4.9,0.1,9.3,0,13.7c-0.1,4.5-2.2,7-7,7c-7.4,0-14.8,0.1-22.1,0c-5.3-0.1-7-1.8-7.2-7.2
						c-0.2-7.2-0.2-14.4,0-21.6c0.2-5.4,2-6.9,7.4-7c7-0.1,14.1-0.1,21.1,0c6.3,0.1,7.8,1.9,7.4,8.8c-1.8,0.4-3.6,0.9-5.5,1.4
						c0.1-0.4,0.2-0.9,0.2-1.3c-2-0.8-4-2.1-6.1-2.3c-5.5-0.3-11.1-0.1-17-0.1c0,7.6,0,14.6,0,22.1c7.2,0,14.2,0,21.6,0
						c0-2.3,0-4.4,0-6.9c-3.7-0.2-7.2-0.4-11.1-0.6c0-2.1,0-3.9,0-6C951.6,235.7,957.5,235.7,963.9,235.7z"/>
				</g>
				<g>
					<g>
						<path class="st3" d="M786.9,256.4c-4.1,0-8.2,0-12.3,0c-4,0-6.3-2.2-6.3-6c-0.2-7.9-0.2-15.8,0-23.6c0.1-4.3,2.6-6.4,7.1-6.3
							c7.9,0.1,15.8,0.1,23.6,0c4.5,0,6.8,2,6.8,6.5c0.1,7.7,0.1,15.4,0,23.1c0,4.2-2.3,6.3-6.5,6.3
							C795.1,256.4,791,256.4,786.9,256.4z M798.4,249.2c0-7.6,0-14.6,0-22.2c-7.1,0-13.9-0.1-20.8,0.1c-0.8,0-2.3,1.5-2.3,2.3
							c-0.2,6.5-0.1,13-0.1,19.7C783.3,249.2,790.6,249.2,798.4,249.2z"/>
					</g>
				</g>
				<g>
					<g>
						<path class="st3" d="M1417.1,256.4c-3.9,0-7.9,0-11.8,0c-4.2,0-6.6-2.1-6.7-6.2c-0.2-7.9-0.2-15.8,0-23.6
							c0.1-4.1,2.5-6.2,6.7-6.1c8,0.1,16.1,0.1,24.1,0c4.5,0,6.7,2.2,6.7,6.6c0,7.7-0.1,15.4-0.1,23.1c0,4-2.2,6-6.1,6.1
							C1425.7,256.4,1421.4,256.4,1417.1,256.4C1417.1,256.4,1417.1,256.4,1417.1,256.4z M1405.7,249c8.2,0,15.6,0,23.2,0
							c0-7.4,0-14.4,0-22c-7.1,0-13.9-0.1-20.8,0.1c-0.8,0-2.3,1.8-2.3,2.8C1405.6,236.2,1405.7,242.4,1405.7,249z"/>
					</g>
				</g>
				<g>
					<g>
						<path class="st3" d="M457,256.9c0-12.8,0-24.3,0-36.1c8.4,0,16.6-0.6,24.6,0.2c7.4,0.8,11.8,7.1,12.3,15.6
							c0.6,9.5-2.9,16.9-10.5,18.3C475,256.5,466.1,256.3,457,256.9z M464.4,227.2c0,7.5,0,14.8,0,22.9c5.4-0.4,10.5-0.3,15.4-1.2
							c4.9-0.9,7-5.1,6.8-11.5c-0.2-5.9-2.4-9.4-7.4-10C474.5,226.8,469.6,227.2,464.4,227.2z"/>
					</g>
				</g>
				<g>
					<g>
						<path class="st3" d="M1241.3,220.7c8.1,0,15.8-0.5,23.4,0.1c8.3,0.6,13.2,7.2,13.5,16.6c0.3,10.3-4.2,16.9-13.1,18.5
							c-2.4,0.5-4.9,0.5-7.3,0.5c-5.4,0.1-10.8,0-16.5,0C1241.3,244.4,1241.3,232.8,1241.3,220.7z M1248.4,249.2
							c5.1,0,9.6,0.4,14.1-0.1c6-0.7,8.7-4.8,8.5-11.7c-0.2-6.6-3.1-10-9.2-10.5c-3.4-0.3-6.9-0.3-10.3,0c-1.1,0.1-2.9,1.7-2.9,2.6
							C1248.3,236.1,1248.4,242.6,1248.4,249.2z"/>
					</g>
				</g>
				<g>
					<g>
						<path class="st3" d="M1123.3,255.8c-5.2,1.4-8.4,0.8-10.1-4.1c-0.5-1.4-2.9-2.8-4.6-3.1c-2.9-0.5-5.9,0-8.8-0.2
							c-4.6-0.4-8.1,0.2-9.9,5.5c-0.5,1.6-4.2,2.2-6.3,3.3c-0.4-0.5-0.8-1-1.2-1.5c1.4-3,2.8-6,4.2-9c3.7-7.8,7.4-15.6,11.3-23.4
							c1.7-3.5,7.4-4.4,9-1.2C1112.4,233.2,1117.7,244.4,1123.3,255.8z M1108.9,241.8c-2.3-5.1-4.3-9.5-6.7-14.8
							c-2.3,5.4-4.3,9.9-6.4,14.8C1100.6,241.8,1104.3,241.8,1108.9,241.8z"/>
					</g>
				</g>
				<g>
					<path class="st3" d="M631.4,246.5c3.4-7.7,6.7-14.3,9.3-21.2c1.7-4.5,4.2-5.8,9.2-4.3c-1.5,3.4-3,6.8-4.5,10.1
						c-3.5,7.6-7,15.2-10.6,22.7c-1.7,3.5-5.5,3.8-7.1,0.5c-5.5-11-10.8-22-16.4-33.4c5-1.1,8.3-0.9,10.3,4.5
						C624.1,232.3,627.7,238.8,631.4,246.5z"/>
				</g>
			</g>
			<g>
				<path class="st3" d="M1558.3,246.4c1.9-0.5,3.8-0.9,5.9-1.5c0.1,1.4,0.1,2.7,0.2,4.1c0.8,0.1,1.5,0.1,2.2,0.1
					c5.6,0,11.2,0,16.8,0.1c1.7,0,2.3-0.6,2.2-2.2c-0.1-2,0-4,0-6.3c-3.9,0-7.5,0-11.1,0c-2.8,0-5.5,0.1-8.3,0
					c-4.3-0.1-6.1-1.5-6.4-5.7c-0.3-3.6-0.1-7.3,0.2-10.9c0.2-2.3,1.7-3.8,4-4.2c0.9-0.1,1.7-0.3,2.6-0.3c5.9,0,11.8-0.1,17.6,0
					c5.1,0,7.2,2.1,7,7.2c0,0.6-0.4,1.4-0.8,1.6c-1.6,0.6-3.2,1-4.9,1.4c-0.2-0.4-0.3-0.7-0.3-0.9c-0.3-3.1-0.3-3.1-3.4-3.1
					c-4.6,0-9.2,0-13.8,0c-0.7,0-1.4,0-2.3,0c0,2.7,0,5.2,0,7.9c0.9,0,1.7,0,2.5,0c5.5,0,10.9,0,16.4,0c5.1,0,6.8,1.6,7,6.8
					c0.1,3.2,0.1,6.4-0.1,9.5c-0.2,3.8-2,5.5-5.8,5.6c-6.8,0.1-13.5,0.1-20.3,0.1c-5,0-6.5-1.5-7-6.4
					C1558.2,248.4,1558.3,247.5,1558.3,246.4z"/>
			</g>
			<g>
				
					<radialGradient id="SVGID_3_" cx="97.1688" cy="274.4478" r="457.7568" gradientTransform="matrix(0.9936 -0.1126 -0.1204 -1.0623 60.6369 406.2445)" gradientUnits="userSpaceOnUse">
					<stop  offset="0" style="stop-color:#003A7A"/>
					<stop  offset="0.1538" style="stop-color:#00336C"/>
					<stop  offset="0.3944" style="stop-color:#002B5D"/>
					<stop  offset="0.5894" style="stop-color:#002858"/>
					<stop  offset="0.724" style="stop-color:#002551"/>
					<stop  offset="0.9183" style="stop-color:#001D3D"/>
				</radialGradient>
				<path class="st4" d="M18.8,5.4c70.3,0,140.4,0,210.7,0c0,23.4,0,46.5,0,70.2c-62.4,0-124.8,0-187.5,0c0,42.4,0,84.3,0,126.5
					c-7.9,0-15.4,0-23.2,0C18.8,136.7,18.8,71.2,18.8,5.4z"/>
				
					<radialGradient id="SVGID_4_" cx="123.955" cy="99.5548" r="410.4709" gradientTransform="matrix(1 0 0 -1 0 305.8898)" gradientUnits="userSpaceOnUse">
					<stop  offset="0" style="stop-color:#003A7A"/>
					<stop  offset="0.1538" style="stop-color:#00336C"/>
					<stop  offset="0.3944" style="stop-color:#002B5D"/>
					<stop  offset="0.5894" style="stop-color:#002858"/>
					<stop  offset="0.724" style="stop-color:#002551"/>
					<stop  offset="0.9183" style="stop-color:#001D3D"/>
				</radialGradient>
				<path class="st5" d="M18.5,304.6c0-1.6,0-2.9,0-4.2c0-21.8,0-43.5,0-65.8c62.6,0,124.9,0,187.6,0c0-42.4,0-84.3,0-126.6
					c7.9,0,15.5,0,23.4,0c0,65.4,0,130.8,0,196.5C159.3,304.6,89.1,304.6,18.5,304.6z"/>
				
					<radialGradient id="SVGID_5_" cx="124.1659" cy="150.8394" r="49.1138" fx="123.7542" fy="139.5471" gradientTransform="matrix(1 0 0 -1 0 305.8898)" gradientUnits="userSpaceOnUse">
					<stop  offset="0.4009" style="stop-color:#E0102F"/>
					<stop  offset="0.5894" style="stop-color:#E5102F"/>
					<stop  offset="0.6997" style="stop-color:#DE102F"/>
					<stop  offset="0.865" style="stop-color:#C9102F"/>
					<stop  offset="0.9183" style="stop-color:#C1102F"/>
				</radialGradient>
				<path class="st6" d="M124.2,204.1C96.8,203.9,74.9,182,75,154.9c0.1-27.2,22.3-49,49.6-48.9c27.4,0.2,49,22.3,48.7,50.1
					C173.1,182.6,150.8,204.3,124.2,204.1z"/>
			</g>
		</g>
	</g>
</g>
</svg>
