<?xml version="1.0" encoding="utf-8"?>
<!-- Generator: Adobe Illustrator 23.0.1, SVG Export Plug-In . SVG Version: 6.00 Build 0)  -->
<svg version="1.1" id="Camada_1" xmlns="http://www.w3.org/2000/svg" xmlns:xlink="http://www.w3.org/1999/xlink" x="0px" y="0px"
	 viewBox="0 0 115.3 104.1" style="enable-background:new 0 0 115.3 104.1;" xml:space="preserve">
<style type="text/css">
	.st0{fill:#828282;}
</style>
<g>
	
		<image style="overflow:visible;opacity:0.75;enable-background:new    ;" width="579" height="508" xlink:href="DA9054B5.png"  transform="matrix(0.2379 0 0 0.2379 -8.18 -8.1136)">
	</image>
	<g>
		<g>
			<path class="st0" d="M0,5.5c0.6-1.7,1.3-3.2,2.8-4.3C4.2,0.3,5.6,0,7.2,0c13.5,0,27,0,40.4,0c17.6,0,35.2,0,52.8,0
				c3.7,0,6.3,2.1,7,5.6c0.1,0.5,0.1,1,0.1,1.6c0,21,0,42,0,63c0,4.3-2.8,7.1-7.1,7.1c-10,0-20,0-30,0c-0.4,0-0.8,0-1.4,0
				c0.4,3.5,0.9,6.9,1.3,10.3c1.7,0,3.4,0,5,0c1.2,0,1.9,0.6,1.9,1.5c0,1-0.7,1.6-1.9,1.6c-14.4,0-28.8,0-43.2,0
				c-1.1,0-1.9-0.6-1.9-1.6s0.7-1.6,1.8-1.6c1.6,0,3.3,0,5.1,0c0.4-3.4,0.8-6.8,1.3-10.3c-0.5,0-0.9,0-1.3,0c-9.6,0-19.3,0-28.9,0
				c-4.9,0-6.4-1-8.3-5.4C0,49.7,0,27.6,0,5.5z M53.8,3.2c-15.5,0-30.9,0-46.4,0c-3,0-4.2,1.3-4.2,4.2c0,20.8,0,41.6,0,62.5
				c0,3,1.3,4.3,4.3,4.3c30.9,0,61.8,0,92.7,0c2.9,0,4.2-1.3,4.2-4.2c0-20.8,0-41.7,0-62.5c0-3-1.3-4.3-4.3-4.3
				C84.7,3.2,69.2,3.2,53.8,3.2z M67.1,87.5c-0.4-3.5-0.8-6.8-1.3-10.2c-2,0-3.8,0-5.8,0c-0.2,0.8-0.4,1.6-0.6,2.4
				c-0.8,2.5-3,4.2-5.6,4.3c-2.6,0-4.9-1.7-5.7-4.3c-0.2-0.6-0.3-1.1-0.4-1.7c-0.1-0.6-0.4-0.7-0.9-0.7c-1.4,0-2.9,0-4.3,0
				c-0.7,0-0.8,0.2-0.9,0.8c-0.1,1.5-0.4,3-0.6,4.5c-0.2,1.6-0.4,3.3-0.6,5C49.4,87.5,58.2,87.5,67.1,87.5z M50.9,77.3
				c0.1,2.2,1.2,3.6,2.9,3.5s2.8-1.4,2.8-3.5C54.7,77.3,52.8,77.3,50.9,77.3z"/>
			<path class="st0" d="M62.5,53.7c-4.7,0-9.4,0-14.1,0c0.1,0.5,0.2,1,0.2,1.4c0.1,2.1-1,3.9-2.8,4.8c-1.8,0.8-3.9,0.5-5.4-0.8
				c-1.5-1.5-2-3.2-1.3-5.3c0.2-0.6,0.2-1-0.2-1.5c-0.9-1-1-2.2-0.4-3.4s1.2-2.4,1.8-3.6c0.1-0.3,0.3-0.6,0.2-0.8
				c-0.9-2.9-1.9-5.8-2.8-8.8c-1.2-4-2.3-8-3.5-12c-0.2-0.6-0.7-1.2-1.2-1.6c-1.1-0.9-2.3-1.6-3.5-2.4c-0.9-0.6-1.1-1.5-0.6-2.3
				s1.4-1,2.3-0.4c1.5,1,3,2,4.5,3c0.3,0.2,0.6,0.4,0.7,0.6c0.4,1.2,1.4,1.1,2.4,1.2c11.5,0.5,23.1,1,34.6,1.5
				c2,0.1,2.5,0.7,2.1,2.6c-0.8,4.1-1.7,8.3-2.5,12.4c-0.6,2.9-2.6,4.9-5.5,5.3c-5.1,0.7-10.3,1.3-15.4,1.9
				c-2.3,0.3-4.6,0.8-6.9,0.7c-1.8,0-2.5,0.7-3,2.1c-0.2,0.6-0.5,1.1-0.9,1.9c0.6,0,1,0,1.4,0c9,0,18.1,0,27.1,0
				c0.4,0,0.8,0,1.3,0.1c0.9,0.2,1.6,1.1,1.2,2c-0.3,0.7-0.2,1.2,0,1.8c0.5,2-0.1,3.8-1.8,5s-3.5,1.4-5.3,0.5
				c-1.9-1-2.7-2.6-2.6-4.8C62.4,54.6,62.5,54.2,62.5,53.7z M45.2,32c-0.4-2.3-0.7-4.4-1.1-6.7c-2.1,0-4.1,0-6.2,0
				c0.6,2.1,1.2,4.2,1.8,6.3c0,0.2,0.3,0.4,0.5,0.4C41.8,32,43.5,32,45.2,32z M53.8,25.7c-2.2,0-4.3,0-6.4,0c0.3,1.9,0.6,3.9,1,5.8
				c0,0.2,0.3,0.4,0.5,0.4c1.7,0,3.3,0,5,0C53.8,29.9,53.8,27.9,53.8,25.7z M47,43.1c-0.4-2.6-0.9-5.3-1.3-7.9c-1.7,0-3.3,0-5,0
				c0.5,1.8,1,3.4,1.5,5.1c1,3.4,1,3.4,4.5,2.9C46.8,43.2,46.9,43.2,47,43.1z M57.1,32c1.8,0,3.4,0,5.1,0c0.2,0,0.5-0.3,0.6-0.5
				c0.2-1.7,0.3-3.4,0.5-5.3c-2.1,0-4.1,0-6.2,0C57.1,28,57.1,29.9,57.1,32z M53.8,42.4c0-2.5,0-4.8,0-7.2c-1.7,0-3.2,0-4.8,0
				c0.4,2.6,0.8,5.1,1.3,7.6C51.5,42.7,52.6,42.5,53.8,42.4z M57.1,35.2c0,2.3,0,4.5,0,6.8c1.4-0.2,2.8-0.3,4.1-0.5
				c0.3,0,0.6-0.4,0.7-0.6c0.2-1.9,0.3-3.7,0.5-5.7C60.6,35.2,58.9,35.2,57.1,35.2z M66.4,26.4c-0.2,1.9-0.3,3.7-0.5,5.6
				c1.6,0,3.1,0,4.6,0c0.2,0,0.5-0.3,0.6-0.5c0.3-1.5,0.6-3.1,1-4.8C70.1,26.6,68.3,26.5,66.4,26.4z M65.1,40.9
				c4,0.2,4.8-1.8,5.2-5.7c-1.5,0-3.1,0-4.7,0C65.4,37.2,65.2,39,65.1,40.9z M69,55.5c0-1-0.8-1.8-1.8-1.8s-1.7,0.7-1.8,1.7
				c0,1,0.7,1.8,1.7,1.8C68.2,57.3,69,56.5,69,55.5z M45.4,55.5c0-1-0.7-1.8-1.8-1.8c-1,0-1.8,0.8-1.8,1.8c0,0.9,0.8,1.7,1.7,1.8
				C44.6,57.3,45.4,56.5,45.4,55.5z"/>
			<path class="st0" d="M9.9,9.9c0,19.2,0,38.3,0,57.5c0.6,0,1.1,0,1.7,0c0.9,0,1.6,0.6,1.6,1.4c0.1,0.8-0.5,1.6-1.4,1.7
				c-1.2,0.1-2.4,0.1-3.7,0c-0.9-0.1-1.4-0.7-1.4-1.6c0-0.3,0-0.6,0-0.8c0-19.6,0-39.3,0-58.9c0-2,0.4-2.4,2.5-2.4
				c26.3,0,52.7,0,79.1,0c1.7,0,2.5,0.5,2.5,1.6S90,9.9,88.3,9.9c-25.6,0-51.2,0-76.8,0C10.9,9.9,10.5,9.9,9.9,9.9z"/>
			<path class="st0" d="M97.6,67.4c0-19.2,0-38.3,0-57.5c-0.6,0-1.2,0-1.8,0c-0.9-0.1-1.5-0.7-1.6-1.5s0.6-1.6,1.5-1.6
				c1.2-0.1,2.4-0.1,3.6,0c0.9,0.1,1.4,0.6,1.5,1.5c0,0.3,0,0.6,0,0.9c0,19.6,0,39.2,0,58.8c0,2.1-0.4,2.5-2.5,2.5
				c-26.3,0-52.6,0-78.9,0c-0.5,0-0.9,0-1.4-0.1c-0.8-0.2-1.2-0.8-1.1-1.6c0.1-0.8,0.5-1.4,1.4-1.4c0.4,0,0.8,0,1.3,0
				c25.6,0,51.1,0,76.6,0C96.6,67.4,97,67.4,97.6,67.4z"/>
		</g>
	</g>
</g>
</svg>
