<?xml version="1.0" encoding="utf-8"?>
<!-- Generator: Adobe Illustrator 23.0.1, SVG Export Plug-In . SVG Version: 6.00 Build 0)  -->
<svg version="1.1" id="Camada_1" xmlns="http://www.w3.org/2000/svg" xmlns:xlink="http://www.w3.org/1999/xlink" x="0px" y="0px"
	 viewBox="0 0 52 51" style="enable-background:new 0 0 52 51;" xml:space="preserve">
<style type="text/css">
	.st0{fill:#FFFFFF;}
</style>
<g>
	<path class="st0" d="M26.15-0.42c-14.2,0-25.71,3.6-25.71,8.03v6.43c0,4.44,11.51,8.03,25.71,8.03s25.71-3.6,25.71-8.03V7.61
		C51.86,3.18,40.35-0.42,26.15-0.42z"/>
	<path class="st0" d="M26.15,26.9c-14.2,0-25.71-3.6-25.71-8.03v9.64c0,4.44,11.51,8.03,25.71,8.03s25.71-3.6,25.71-8.03v-9.64
		C51.86,23.3,40.35,26.9,26.15,26.9z"/>
	<path class="st0" d="M26.15,41.36c-14.2,0-25.71-3.6-25.71-8.03v9.64C0.44,47.4,11.95,51,26.15,51s25.71-3.6,25.71-8.03v-9.64
		C51.86,37.76,40.35,41.36,26.15,41.36z"/>
</g>
</svg>
