<?xml version="1.0" encoding="utf-8"?>
<!-- Generator: Adobe Illustrator 23.0.1, SVG Export Plug-In . SVG Version: 6.00 Build 0)  -->
<svg version="1.1" id="Camada_1" xmlns="http://www.w3.org/2000/svg" xmlns:xlink="http://www.w3.org/1999/xlink" x="0px" y="0px"
	 viewBox="0 0 178 179" style="enable-background:new 0 0 178 179;" xml:space="preserve">
<style type="text/css">
	.st0{fill:#828282;}
</style>
<title>Ativo 13</title>
<g>
	<g>
		<g id="Camada_1-2">
			
				<image style="overflow:visible;opacity:0.75;enable-background:new    ;" width="178" height="179" xlink:href="CEF61778.png"  transform="matrix(1 0 0 1 0 -2.018494e-05)">
			</image>
			<path class="st0" d="M98.7,119.3h-4.9v5.4c0,1.2,0,2.4,0,3.6c0,1.4-0.6,2.4-2,2.4s-2.3-0.9-2.3-2.4v-8.9h-4.9v2.1
				c0,10.3,0,20.6,0,30.9c0,0.7,0.1,1.5-0.2,2c-0.5,0.7-1.3,1.5-2,1.5s-1.5-0.9-2-1.6c-0.3-0.4-0.2-1.2-0.2-1.8
				c0-10.2,0-20.5,0-30.8v-2.4h-4.9c0,2.6,0,5.2,0,7.8c0,0.6,0.2,1.4-0.1,1.8c-0.5,0.8-1.3,1.3-2.2,1.6c-1.2,0.1-1.9-0.8-1.9-2
				c0-2.4,0-4.8,0-7.1v-2.1h-4.9v7.5c0,3.3,0,6.5,0,9.7c-0.2,1,0.4,1.9,1.3,2.4c2.7,1.5,3.9,4.7,3,7.6c-1,3.6-4.8,5.6-8.3,4.6
				c-3.6-1-5.6-4.8-4.6-8.3c0.5-1.7,1.6-3.1,3.2-4c0.6-0.4,1-0.9,1.1-1.6c0.1-5.8,0-11.5,0-17.2c0-0.2-0.1-0.5-0.2-0.7
				c-4.5,0.1-9,0.2-12.5-3.3s-3.5-8-3.3-12.7c-2.6,0-5-0.2-7.4,0.1c-1,0.2-2,0.7-2.7,1.5c-4.4,4.3-8.7,8.6-13,13
				c-0.4,0.6-0.6,1.3-0.4,2.1c1,3.6-1.1,7.3-4.7,8.3c-3.6,1-7.3-1.1-8.3-4.7s1.1-7.3,4.7-8.3c0.5-0.1,1-0.2,1.6-0.2
				c0.2-0.1,0.5-0.1,0.7,0c2.2,1,3.5-0.2,4.9-1.7c3.4-3.6,7.1-6.9,10.4-10.5c2.5-2.8,6.1-4.3,9.9-4c1.4,0.1,2.7,0,4.3,0V94h-8.4
				c-2,0-3-0.7-2.9-2.1c0.1-1.8,1.4-2.2,2.9-2.1c2.7,0,5.5,0,8.4,0v-4.9H11.6c-1.4,0-2.5-0.6-2.5-2.2s1-2.2,2.4-2.2
				c0.4,0,0.9,0,1.3,0h32.9v-4.9h-8.9c-1.5,0-2.5-0.7-2.4-2.2s1-2,2.4-2c2.4,0,4.8,0,7.1,0h1.8v-4.9h-1.8c-5.2,0-10.4,0-15.6,0
				c-0.9-0.1-1.8,0.3-2.2,1.2c-1.5,2.7-4.6,4-7.5,3.1c-3.6-1-5.7-4.7-4.7-8.3c1-3.6,4.7-5.7,8.3-4.7c1.7,0.5,3.1,1.6,4,3.1
				c0.4,0.5,1,1.2,1.5,1.2c5.9,0.1,11.9,0.1,18.1,0.1c0-1.5,0-2.9,0-4.3c0-1.1,0.1-2.1,0.4-3.2c0.3-1.1,1.5-1.8,2.6-1.5
				c1,0.3,1.6,1.1,1.6,2.2c0,17.2-0.1,34.5-0.2,51.7c0,5.4,2.6,8,8.1,8H107c0.9,0,1.8-0.1,2.6-0.1c1.4-0.1,2.4,0.3,2.6,1.8
				c0.2,1.1-0.5,2.1-1.5,2.4c-0.1,0-0.3,0-0.5,0c-1.9,0.2-3.8,0.2-5.8,0.3c-0.4,0-0.7,0-1.2,0.1c0,2.4-0.2,4.8,0.1,7.1
				c0.2,1.1,0.7,2.1,1.6,2.9c4.3,4.4,8.6,8.7,13,13c0.6,0.4,1.4,0.6,2.1,0.4c3.6-1,7.3,1.2,8.3,4.8c1,3.6-1.2,7.3-4.8,8.3
				c-3.6,1-7.3-1.2-8.3-4.8c-0.1-0.5-0.2-0.9-0.2-1.4c-0.1-0.4-0.1-0.8,0.1-1.1c0.9-1.9-0.1-3-1.4-4.3c-3.7-3.6-7.3-7.4-11-10.9
				c-2.7-2.4-4.1-5.8-3.9-9.4C98.7,122.4,98.7,121,98.7,119.3z M20.4,61.7c-1.3-0.1-2.4,0.9-2.4,2.2c0,0.1,0,0.1,0,0.2
				c-0.2,1.2,0.7,2.3,1.9,2.5c0.1,0,0.2,0,0.3,0c1.3,0.1,2.4-0.8,2.6-2c0-0.1,0-0.2,0-0.3c0.1-1.3-1-2.4-2.3-2.5
				C20.5,61.7,20.5,61.7,20.4,61.7z M18.1,121.6c0-1.3-1.1-2.3-2.4-2.3s-2.4,1-2.4,2.3c0,0.1,0,0.1,0,0.2c0,1.3,1,2.3,2.3,2.3h0.1
				c1.3,0,2.4-1,2.4-2.3C18.2,121.6,18.2,121.6,18.1,121.6z M63.8,147c1.3,0.1,2.5-0.8,2.6-2.1c0-0.1,0-0.1,0-0.2
				c0.1-1.3-0.9-2.4-2.1-2.5c-0.1,0-0.2,0-0.3,0c-1.2-0.1-2.3,0.9-2.4,2.2c0,0.1,0,0.2,0,0.2c-0.1,1.2,0.8,2.3,2,2.4
				C63.8,147,63.8,147,63.8,147z M121.4,151.6c1.4,0.1,2.5-0.9,2.7-2.3c0.1-1.3-0.9-2.4-2.2-2.5c-0.1,0-0.2,0-0.2,0
				c-1.2-0.1-2.3,0.8-2.4,2c0,0.1,0,0.2,0,0.3C119.2,150.3,120.1,151.5,121.4,151.6L121.4,151.6L121.4,151.6z"/>
			<path class="st0" d="M119.3,103.1c-0.2,2.5-0.2,4.7-0.4,6.8c-0.1,1.5-1,2.5-2.6,2.2s-1.8-1.5-1.6-2.9c0.1-0.7,0.1-1.5,0.1-2.3
				V58.3c0-5.5-2.6-8.1-8-8.1H57.9c-0.9,0-1.8,0.1-2.6,0.2c-1.3,0-2.3-0.4-2.5-1.8c-0.2-1.1,0.4-2.1,1.5-2.4c0.1,0,0.2,0,0.3,0
				c2.3-0.3,4.7-0.4,7.2-0.5c0-2.4,0.1-4.9-0.1-7.4c-0.2-1-0.8-2-1.6-2.7c-4.2-4.3-8.5-8.6-12.9-12.9c-0.6-0.4-1.3-0.6-2.1-0.5
				c-2.9,0.8-6-0.5-7.6-3c-1.5-2.6-1.1-5.9,1-8.1s5.4-2.7,8.1-1.2c2.7,1.4,4,4.6,3.2,7.5c-0.3,0.9,0,2,0.7,2.6
				c3.9,3.9,7.7,7.9,11.7,11.6c2.8,2.5,4.3,6.1,4,9.9c-0.1,1.4,0,2.7,0,4.3h4.9c0-2.8,0-5.6,0-8.4c0-2,0.7-3,2.1-2.9
				c1.8,0.1,2.2,1.4,2.1,2.9c0,2.7,0,5.5,0,8.4h4.9v-33c0-0.6-0.2-1.3,0.1-1.6c0.6-0.8,1.4-1.9,2.1-1.9s1.5,1.1,2.1,1.9
				c0.3,0.4,0.1,1.1,0.1,1.7v33h4.9v-7.3c0-0.7,0-1.4,0-2.1c0.1-1.2,1.1-2,2.3-1.9c1.1,0.1,1.9,0.9,1.9,2c0,2.5,0,5,0,7.5
				c0,0.5,0.1,1.1,0.1,1.8h4.8v-3.5c0-4.6,0-9.3,0-13.9c0.1-0.9-0.4-1.8-1.2-2.2c-2.6-1.5-3.9-4.6-3-7.5c1-3.6,4.7-5.7,8.3-4.6
				s5.7,4.7,4.6,8.3c-0.5,1.7-1.6,3.1-3.1,4c-0.5,0.3-1.2,0.9-1.2,1.4c-0.1,5.6-0.1,11.1-0.1,16.7c0,0.4,0.1,0.8,0.1,1.5
				c4.6-0.2,9.1-0.3,12.7,3.3s3.6,8,3.4,12.7c4.5,0.3,8.7,0.8,12.1-3.3s7.2-7.4,10.9-11.1c0.7-0.5,0.9-1.5,0.6-2.3
				c-0.9-2.9,0.4-6.1,3-7.6s6-1.1,8.1,1c2.2,2.1,2.7,5.4,1.2,8.1c-1.4,2.7-4.5,4-7.5,3.2c-1-0.3-2.1,0-2.7,0.8
				c-3.8,3.9-7.8,7.6-11.5,11.6c-2.5,2.8-6.1,4.3-9.8,4c-1.4-0.1-2.7,0-4.3,0v4.9c2.8,0,5.6,0,8.4,0c2,0,3,0.7,2.9,2.1
				c-0.1,1.8-1.3,2.2-2.9,2.2c-2.8,0-5.5,0-8.4,0v4.8h33.2c0.7-0.1,1.4,0,2,0.2c0.7,0.4,1.2,1.1,1.4,1.9c-0.1,0.8-0.6,1.5-1.3,2
				c-0.6,0.3-1.3,0.4-2,0.3h-33.3v4.9c2.4,0,4.8,0,7.3,0c0.7,0,1.4,0,2.1,0c1.2,0.1,2,1.1,1.9,2.3c-0.1,1.1-0.9,1.9-2,1.9
				c-2.5,0-5,0-7.5,0c-0.6,0-1.1,0.1-1.8,0.1v4.8h4.8c4.3,0,8.5,0,12.7-0.1c0.7-0.1,1.4-0.4,1.9-1c1.9-2.8,4.7-4,7.7-3.2
				c3.6,0.9,5.7,4.6,4.8,8.2c-0.6,2.4-2.5,4.3-4.9,4.8c-3,0.8-5.8-0.4-7.6-3.3c-0.3-0.4-0.8-1-1.1-1
				C131.5,103.1,125.4,103.1,119.3,103.1z M45.8,15.7c0-1.3-1-2.3-2.3-2.3h-0.1c-1.2-0.1-2.3,0.9-2.4,2.2c0,0.1,0,0.1,0,0.2
				c-0.1,1.3,0.9,2.4,2.2,2.4c0.1,0,0.2,0,0.3,0C44.8,18.1,45.8,17,45.8,15.7L45.8,15.7z M101,17.9c-1.3,0-2.4,1.1-2.4,2.4
				s1.1,2.4,2.4,2.4l0,0c1.2,0,2.3-0.9,2.3-2.2c0-0.1,0-0.2,0-0.2c0.1-1.3-0.9-2.3-2.2-2.4C101.1,17.9,101.1,17.9,101,17.9z
				 M151.7,43.4c0-1.3-1-2.4-2.4-2.4c-0.1,0-0.1,0-0.2,0c-1.3,0-2.4,1-2.4,2.4c0,1.3,1,2.4,2.4,2.4c1.3,0.1,2.4-0.9,2.5-2.2
				C151.7,43.5,151.7,43.5,151.7,43.4L151.7,43.4z M144.6,103.3c1.3,0,2.3-1,2.4-2.3l0,0c0.1-1.3-0.9-2.4-2.2-2.5
				c-0.1,0-0.2,0-0.3,0c-1.2-0.1-2.3,0.9-2.4,2.1c0,0.1,0,0.2,0,0.3c-0.1,1.3,0.9,2.3,2.1,2.4C144.4,103.3,144.5,103.3,144.6,103.3
				L144.6,103.3z"/>
			<path class="st0" d="M82.5,104.4c-5,4-10,4.3-14.3,1c-1.6-1.4-2.8-3.2-3.3-5.3c-0.2-0.9-0.7-1.6-1.3-2.3
				c-3.8-3.4-5.5-9.1-2.3-14.1c0.3-0.5,0.3-1,0.1-1.5c-4.3-6.1-0.3-13.4,5.5-15.1c0.2-0.1,0.4-0.2,0.6-0.3c-0.5-4,1-7,4.7-8.7
				s7.1-0.8,10.2,1.7c3-2.3,6.4-3.3,10.1-1.8s5.4,4.6,4.9,8.9c3.5,1.2,6.2,3.3,7.4,6.8s0.2,6.9-2.4,9.7c0.3,0.4,0.5,0.8,0.8,1.1
				c3.5,4.7,2.7,10.3-2,13.9c-0.5,0.4-1,0.9-1.2,1.5c-1.5,7.5-11.4,10-16.8,4.9C83,104.7,82.8,104.6,82.5,104.4z M99.5,94.1
				c2.4-2.7,2.1-5.6-0.9-7.9c-2.7-2.1-2.7-2.9,0.1-5.1c3.1-2.4,3.1-6.6,0-8.8c-1.9-1.4-4.5-1.9-6.8-1.2c-2.1,0.6-3.4,0.2-3.7-1.2
				c-0.4-1.9,0.9-2.5,2.4-2.9c0.2,0,0.4-0.1,0.5-0.2c2.3-0.6,2.8-2.3,1-4c-1.2-1.2-2.9-1.7-4.5-1.2c-1.6,0.3-2.8,1.6-3,3.2
				c-0.2,1.3-0.8,2.4-2.2,2.4s-2.1-1.1-2.3-2.5c0-0.1,0-0.1,0-0.2c-0.3-1.6-1.7-2.8-3.3-3c-1.7-0.4-3.5,0.2-4.5,1.5
				c-1.1,1.3-0.7,2.6,0,4c1.1,2,0.3,3.2-2,3.6c-1.4,0.2-2.8,0.7-4,1.4c-2.7,1.7-3.2,5.5-1.1,7.5c1-0.4,2.1-0.8,3.2-1.2
				c1.4-0.5,2.6-0.2,3.1,1.2s-0.4,2.2-1.7,2.9c-1.5,0.6-3,1.5-4.2,2.6c-2.2,2.4-2.1,6.1,0.2,8.3c0.1,0.1,0.3,0.2,0.4,0.4
				c0.1-0.1,0.2-0.3,0.3-0.4c1.4-1.7,2.7-2.1,3.7-1.1c1.4,1.3,0.4,2.4-0.3,3.8c-0.6,1.2-0.8,2.7-0.4,4c0.7,2.3,2.9,3,5.1,3.1
				c2.2,0.2,4.4-1,5.3-3c1.6-4,0.1-8.5-3.5-10.8c-1.1-0.4-1.6-1.7-1.1-2.7v-0.1c0.5-1.3,1.6-1.4,2.8-1.1c0.7,0.3,1.4,0.5,2.1,0.9
				v-1.9c0-3.2,0-6.4,0-9.6c0-1.3,0.6-2.4,2.1-2.4s2.1,1.1,2.3,2.4c0,0.6,0,1.3,0,1.9c2-0.4,3.7-0.8,5.5-1c1.1-0.1,2,0.6,2.1,1.7
				c0,0.1,0,0.1,0,0.2c0.1,1.1-0.6,2.1-1.7,2.2l0,0C90,79.9,89.5,80,89,80c-2.6,0.2-4.6,2.5-4.4,5.2c0,4.3,0,8.6,0,12.9
				c0,2.8,1.7,4.5,4.8,4.9c2.6,0.4,5.2-1,6.2-3.5c0.7-2.1-0.5-4.1-3.2-5.5l-0.3-0.2c-1.2-0.6-1.8-1.6-1.2-2.9c0.4-1,1.5-1.6,2.6-1.2
				c0.2,0.1,0.4,0.2,0.6,0.3C96,91.5,97.7,92.8,99.5,94.1L99.5,94.1z"/>
		</g>
	</g>
</g>
</svg>
