<?xml version="1.0" encoding="utf-8"?>
<!-- Generator: Adobe Illustrator 23.0.1, SVG Export Plug-In . SVG Version: 6.00 Build 0)  -->
<svg version="1.1" id="Camada_1" xmlns="http://www.w3.org/2000/svg" xmlns:xlink="http://www.w3.org/1999/xlink" x="0px" y="0px"
	 viewBox="0 0 52 51" style="enable-background:new 0 0 52 51;" xml:space="preserve">
<style type="text/css">
	.st0{fill:#FFFFFF;}
</style>
<g>
	<path class="st0" d="M34.83,35.18v-2.36c3.15-1.78,5.72-6.21,5.72-10.63c0-7.11,0-12.88-8.59-12.88s-8.59,5.77-8.59,12.88
		c0,4.43,2.57,8.86,5.72,10.63v2.36c-9.71,0.79-17.17,5.56-17.17,11.33H52C52,40.75,44.54,35.98,34.83,35.18z"/>
	<path class="st0" d="M15.12,36.29c2.47-1.62,5.55-2.85,8.93-3.6c-0.67-0.8-1.28-1.68-1.81-2.64c-1.36-2.47-2.08-5.19-2.08-7.87
		c0-3.85,0-7.48,1.37-10.45c1.33-2.88,3.72-4.67,7.12-5.34c-0.76-3.42-2.77-5.67-8.13-5.67c-8.59,0-8.59,5.77-8.59,12.88
		c0,4.43,2.57,8.86,5.72,10.63v2.36C7.95,27.39,0.49,32.16,0.49,37.93h12.48C13.61,37.35,14.33,36.8,15.12,36.29L15.12,36.29z"/>
</g>
</svg>
