<?xml version="1.0" encoding="utf-8"?>
<!-- Generator: Adobe Illustrator 23.0.1, SVG Export Plug-In . SVG Version: 6.00 Build 0)  -->
<svg version="1.1" id="Camada_1" xmlns="http://www.w3.org/2000/svg" xmlns:xlink="http://www.w3.org/1999/xlink" x="0px" y="0px"
	 viewBox="0 0 52 51" style="enable-background:new 0 0 52 51;" xml:space="preserve">
<style type="text/css">
	.st0{fill:#FFFFFF;}
</style>
<path class="st0" d="M1.02,50.66h25.36V-0.07H1.02V50.66z M16.87,6.28h6.34v6.34h-6.34V6.28z M16.87,18.96h6.34v6.34h-6.34V18.96z
	 M16.87,31.64h6.34v6.34h-6.34V31.64z M4.19,6.28h6.34v6.34H4.19V6.28z M4.19,18.96h6.34v6.34H4.19V18.96z M4.19,31.64h6.34v6.34
	H4.19V31.64z M29.55,15.79h22.19v3.17H29.55V15.79z M29.55,50.66h6.34V37.98h9.51v12.68h6.34V22.13H29.55V50.66z"/>
</svg>
