<?xml version="1.0" encoding="utf-8"?>
<!-- Generator: Adobe Illustrator 23.0.1, SVG Export Plug-In . SVG Version: 6.00 Build 0)  -->
<svg version="1.1" id="Camada_1" xmlns="http://www.w3.org/2000/svg" xmlns:xlink="http://www.w3.org/1999/xlink" x="0px" y="0px"
	 viewBox="0 0 111.4 123.4" style="enable-background:new 0 0 111.4 123.4;" xml:space="preserve">
<style type="text/css">
	.st0{fill:#828282;}
</style>
<g>
	
		<image style="overflow:visible;opacity:0.75;enable-background:new    ;" width="521" height="588" xlink:href="E3D3D608.png"  transform="matrix(0.2043 0 0 0.2043 2.4857 1.6424)">
	</image>
	<g>
		<g>
			<path class="st0" d="M9.8,39c0-3.7,0-7.4,0-11.1c0-2.3,0.9-3.8,3.2-4.7c11.6-4.7,23.2-9.6,34.8-14.3c1.2-0.5,3-0.5,4.2,0
				c11.6,4.7,23.2,9.6,34.8,14.4c2.1,0.9,3.1,2.1,3.1,4.3c-0.2,8.6,0.2,17.2-0.7,25.6c-1.8,16.6-9.5,30.3-22.7,40.6
				c-4.4,3.4-9.5,5.9-14.5,8.7c-1.1,0.6-3,0.6-4.2,0.1c-21.5-9.8-34.1-26.2-37.4-49.7c-0.6-4.6-0.6-9.3-0.9-14C9.6,39,9.7,39,9.8,39
				z M17.6,29.4c0,7.7-0.8,15.3,0.2,22.6C20.2,71.6,30.6,85.6,48,94.6c1.3,0.7,2.3,0.6,3.5-0.1c6.4-3.2,12.2-7.4,17-12.8
				c7.6-8.6,12.3-18.6,13.4-30c0.7-6.9,0.3-14,0.4-20.9c0-0.6-0.7-1.5-1.3-1.7c-10-4.2-20-8.4-30-12.5c-0.7-0.3-1.5-0.4-2.2-0.2
				C38.4,20.7,27.8,25.1,17.6,29.4z"/>
			<path class="st0" d="M45.8,57.9c5.2-5.2,10.3-10.4,15.4-15.4c2-2,4.2-2.1,5.7-0.3c1.4,1.5,1.5,3.6-0.2,5.1
				c-6,6.2-12.1,12.3-18.3,18.3c-1.8,1.8-3.9,1.7-5.7-0.1c-3.3-3.3-6.7-6.5-9.9-9.9c-1.8-1.9-1.8-3.9-0.2-5.5
				c1.5-1.5,3.7-1.4,5.5,0.3C40.8,52.9,43.2,55.3,45.8,57.9z"/>
		</g>
	</g>
</g>
</svg>
