<?xml version="1.0" encoding="utf-8"?>
<!-- Generator: Adobe Illustrator 23.0.1, SVG Export Plug-In . SVG Version: 6.00 Build 0)  -->
<svg version="1.1" id="Camada_1" xmlns="http://www.w3.org/2000/svg" xmlns:xlink="http://www.w3.org/1999/xlink" x="0px" y="0px"
	 viewBox="0 0 170 163" style="enable-background:new 0 0 170 163;" xml:space="preserve">
<style type="text/css">
	.st0{fill:#828282;}
</style>
<title>Ativo 12</title>
<g>
	<g>
		<g id="Camada_1-2">
			
				<image style="overflow:visible;opacity:0.75;enable-background:new    ;" width="170" height="163" xlink:href="D81DDF88.png"  transform="matrix(1 0 0 1 0 -2.018494e-05)">
			</image>
			<path class="st0" d="M79,96.4c1.6-16.6,1.2-32.8-4.4-48.4c-0.6-1.7-1.4-3.4-2.1-5.1c-0.5-1.3-1.2-1.6-2.6-1.3
				c-4.4,1.1-9.1,1-13.5-0.3c-7-2.2-11.1-7.3-13.2-14.3c-1.5-5.4-2.1-11-1.7-16.6c0.1-1.3,0.5-2.3,1.9-2.3
				c9.4-0.3,18.6,0.3,26.8,5.4c6.6,4,9,10.3,7.3,17.8c-0.1,0.9-0.3,1.9-0.7,2.8c-1.7,3-1.1,5.6,0.4,8.7c4,8.1,5.8,16.9,6.5,25.9
				c0.1,1,0.2,2,0.4,3.3c1.1-1.8,1.8-3.2,1-5.2c-1.6-4.4-1.7-9.2-0.5-13.7c1.9-6.9,6.6-11,13.2-13c5-1.4,10.2-1.9,15.4-1.5
				c1.3-0.1,2.4,0.8,2.5,2.1c0,0.1,0,0.3,0,0.4c0,7-0.4,14-3.4,20.4c-1.3,2.7-3,5.2-5.2,7.3c-4.4,4-9.8,4.1-15.1,2.3
				c-1.7-0.6-2.3-0.2-3,1.3c-3,7.2-4.8,14.8-5.3,22.6c0,0.4,0,0.7,0,1.1c0.1,0.2,0.1,0.4,0.2,0.6h2.7c4.4,0,8.9,0.1,13.3,0
				c4.3-0.1,7.8,1.2,10.3,5c2.9-3.3,5.7-6.6,8.5-9.8c4.2-4.7,8.2-9.7,12.6-14.2c3.8-3.9,8.9-5.2,14.3-4.9c2,0.1,2.7,1.6,1.8,3.6
				c-2.4,5.6-4.9,11.2-7.4,16.8c-3.2,7.2-6.2,14.5-9.7,21.7c-4,8.3-10.8,13.2-19.6,15.8c-6.1,1.9-12.1,4.3-18,6.8
				c-9.7,4.2-20.8,4.1-30.4-0.4c-7.9-3.5-15.8-6.9-23.8-10.2c-7.7-3.1-15.8-4.4-23.9-5.2C9,121,9,121.1,9,115.4c0-5.9,0-11.8,0-17.7
				c0-0.9,0.2-1.7,0.7-2.4c7.3-8.5,16.2-14,27.8-13.2c6.9,0.5,13.4,2.8,19.6,5.7c4,1.9,7.8,4.2,11.7,6.2C72,95.6,75.5,96.5,79,96.4z
				 M13.5,116.8c0.6,0.1,1,0.1,1.3,0.2c10.1,0.7,20,3.1,29.3,7c6.5,2.8,13,5.6,19.4,8.5c8.7,4.2,18.9,4.4,27.8,0.5
				c6.5-2.7,13.1-5.1,19.7-7.3c7.3-2.3,13.2-7.7,16.2-14.8c4.6-10.5,9.2-20.9,13.8-31.4c0.3-0.7,0.5-1.4,0.9-2.3
				c-3.4,0.4-6.5,2.1-8.8,4.6c-6.9,7.9-13.8,15.8-20.7,23.8c-0.4,0.4-0.7,0.9-0.8,1.5c-1.2,6.9-4.8,10-11.8,10c-7.8,0-15.7,0-23.6,0
				c-5.4,0-10.9-0.1-16.2,1.9l-1.4-4.5c2.6-0.6,4.9-1.4,7.3-1.5c5.8-0.3,11.7-0.3,17.5-0.4s11.7,0,17.5,0c3.6,0,6.1-2.5,6.1-5.8
				c0-3.5-2.6-5.8-6.6-5.8c-6.6,0-13.1-0.1-19.7,0c-6,0-12-1.6-17.2-4.6c-4.8-2.7-9.7-5-14.8-7c-3.8-1.5-7.8-2.4-11.8-2.8
				c-9.5-0.8-16.7,3.9-23,10.4c-0.3,0.3-0.5,0.6-0.5,1C13.5,104.3,13.5,110.5,13.5,116.8L13.5,116.8z M68.8,37
				c-0.2-0.3-0.3-0.5-0.5-0.7c-2.8-3.8-6.5-6.9-10.8-9c-2.3-1.2-2.9-2.1-2.2-3.5s1.9-1.7,4.2-0.6c4.1,2,7.7,4.8,10.7,8.3
				c0.6,0.7,1.2,1.4,2,2.2c0.4-1.4,0.7-2.5,0.9-3.6c1.2-5.6-0.5-9.8-5.4-12.9c-3.8-2.3-8.1-3.7-12.5-4.1c-3.1-0.4-6.2-0.6-9.4-0.9
				c0.1,5.7,0.4,10.9,2.5,16C52.2,37.4,62.1,39.1,68.8,37z M88.8,62.3c2.4-2.8,4.8-5.6,7.3-8.2c1.3-1.2,2.7-2.3,4.2-3.2
				c0.9-0.7,2.2-0.5,2.9,0.4c0.1,0.1,0.1,0.2,0.2,0.3c0.7,0.9,0.4,2.3-0.5,2.9l-0.1,0.1c-0.6,0.5-1.2,0.9-1.8,1.4
				c-3.5,2.8-6.4,6.3-8.5,10.2c4.8,2.1,10.8,1.7,14-3.3c3.9-6.1,4.5-12.9,4.9-20c-5.5-0.2-10.7,0.2-15.4,2.8
				C89.7,49,87.4,54.8,88.8,62.3L88.8,62.3z"/>
		</g>
	</g>
</g>
</svg>
