<?xml version="1.0" encoding="utf-8"?>
<!-- Generator: Adobe Illustrator 23.0.1, SVG Export Plug-In . SVG Version: 6.00 Build 0)  -->
<svg version="1.1" id="Camada_1" xmlns="http://www.w3.org/2000/svg" xmlns:xlink="http://www.w3.org/1999/xlink" x="0px" y="0px"
	 viewBox="0 0 52 51" style="enable-background:new 0 0 52 51;" xml:space="preserve">
<style type="text/css">
	.st0{fill:#898989;}
</style>
<g>
	<path class="st0" d="M34.8,35.2v-2.4c3.2-1.8,5.7-6.2,5.7-10.6c0-7.1,0-12.9-8.6-12.9s-8.6,5.8-8.6,12.9c0,4.4,2.6,8.9,5.7,10.6
		v2.4c-9.7,0.8-17.2,5.6-17.2,11.3H52C52,40.7,44.5,36,34.8,35.2z"/>
	<path class="st0" d="M15.1,36.3c2.5-1.6,5.6-2.8,8.9-3.6c-0.7-0.8-1.3-1.7-1.8-2.6c-1.4-2.5-2.1-5.2-2.1-7.9c0-3.9,0-7.5,1.4-10.4
		c1.3-2.9,3.7-4.7,7.1-5.3c-0.8-3.4-2.8-5.7-8.1-5.7c-8.6,0-8.6,5.8-8.6,12.9c0,4.4,2.6,8.9,5.7,10.6v2.4
		C7.9,27.4,0.5,32.2,0.5,37.9H13C13.6,37.3,14.3,36.8,15.1,36.3L15.1,36.3z"/>
</g>
</svg>
