<?xml version="1.0" encoding="utf-8"?>
<!-- Generator: Adobe Illustrator 23.0.1, SVG Export Plug-In . SVG Version: 6.00 Build 0)  -->
<svg version="1.1" id="Camada_1" xmlns="http://www.w3.org/2000/svg" xmlns:xlink="http://www.w3.org/1999/xlink" x="0px" y="0px"
	 viewBox="0 0 151 151" style="enable-background:new 0 0 151 151;" xml:space="preserve">
<style type="text/css">
	.st0{fill:#828282;}
</style>
<title>Ativo 10</title>
<g>
	<g>
		<g id="Camada_1-2">
			
				<image style="overflow:visible;opacity:0.75;enable-background:new    ;" width="151" height="151" xlink:href="21E42200.png"  transform="matrix(1 0 0 1 0 -2.018494e-05)">
			</image>
			<path class="st0" d="M27.6,75.7v13.5h11.5v23.2H8.2V89.3h15.4V71.9h8.7c-1.3-5.7-1.2-11.7,0.3-17.4h-5v-5.9H16V23.5H8.3V8h30.8
				v15.4H19.9v21.2h7.6v-5.7H29c3.7,0,7.5,0,11.2,0c0.6,0,1.1-0.2,1.6-0.6c6.2-6.4,14.5-10.2,23.3-10.9c0.4,0,0.7-0.1,1.2-0.2v-9.6
				h23.2V8h31v23.1h-31v-9.5H70.3v5.8c11.2,0.8,20.4,5.4,27.3,14.3s8.8,19.1,6.6,30.2h4.7v5.8h11.6v27.1h7.7V128H97.3v-23.1h19.2
				V81.6h-7.6v5.7c-2.5,0-4.9,0.2-7.3,0c-3.5-0.3-6.5,0.2-8.8,3.3c-1,1.3-2.6,2.1-3.9,3.2c-2.2,1.8-3.4,4.5-3.3,7.3
				c0,0.5,0.3,0.9,0.6,1.2c4.3,3.5,4.3,9-0.1,12.6c-0.4,0.4-0.7,0.8-0.7,1.4c-1.3,7.2-6.6,11.7-14,11.7c-3.2,0.1-6.4,0-9.5-0.3
				c-5.7-0.9-10.1-5.3-10.9-11c-0.1-0.9-0.5-1.6-1.2-2.1c-3.3-2.6-3.9-7.3-1.3-10.6c0.4-0.5,0.8-0.9,1.3-1.3c0.7-0.5,1.1-1.3,1-2.2
				c-0.1-3-1.7-5.7-4.1-7.3c-4.4-3.1-8-7.2-10.6-11.9c-0.8-1.5-1.5-3.1-2.2-4.6c-0.3-0.7-0.6-1-1.4-1C30.9,75.8,29.3,75.7,27.6,75.7
				z M81.8,100.8c0-6.3,4.1-9.9,8.4-12.8c-0.3-0.6-0.5-1.2-0.7-1.8c-0.1-2.4,0-4.8,0-7.2v-7.2h3.8V68H81.9v-3.8h15.5v7.6h2.6
				c5.8-19.4-9.6-40-29.8-40.3v9.3h-3.9v-9.5c-6.8,0.3-13.3,2.7-18.5,7C47.2,38.8,47,39.4,47,40c-0.1,3.3,0,6.5,0,9.8v4.7h-3.9v3.8
				h11.4v3.8H39.1v-7.6h-2.4c-1.8,5.6-1.9,11.7-0.3,17.3h18.2v3.9H37.8c0.2,0.4,0.2,0.7,0.3,0.9c2.2,4.9,5.5,9.2,9.7,12.5
				c1.4,1,2.7,2.2,3.9,3.5c1.9,2.3,3,5.1,3,8.1L81.8,100.8L81.8,100.8z M68.1,112.5c4.5,0,9,0,13.4,0c2.1,0.2,4-1.4,4.1-3.6
				s-1.4-4-3.6-4.1c-0.2,0-0.4,0-0.6,0c-8.9,0-17.8,0-26.7,0c-0.9,0-1.7,0.3-2.4,0.8c-1.4,0.9-1.9,2.6-1.4,4.1
				c0.5,1.7,2.1,2.8,3.9,2.8C59.3,112.5,63.7,112.5,68.1,112.5z M55.1,116.5c0.5,3.4,3.6,6.9,7.2,7.3c3.9,0.4,7.9,0.4,11.8,0
				c3.7-0.3,6.8-3.8,7.2-7.3H55.1z M101,27.1V12h-7.4v15.1H101z M12.2,93.3v15.2h7.4V93.3H12.2z M108.7,124v-15.2h-7.4V124H108.7z
				 M31.6,42.9v7.4h11.2v-7.4H31.6z M104.9,75.9H93.6v7.4h11.3V75.9z M12.2,12v7.4h7.4V12H12.2z"/>
			<path class="st0" d="M58.6,69.9h3.8c0,1.4,0,2.7,0,4c0,2.9,2.3,5.4,5.2,5.6c2.9,0.3,5.6-1.7,6.2-4.6c0.6-2.8-1-5.6-3.7-6.5
				c-1.4-0.4-2.8-0.7-4.1-1.1c-5.1-1.1-8.4-6.2-7.3-11.3c0.7-3.3,3.2-6,6.4-7.1l1.1-0.4v-3.9h3.9v3.9c2.6,0.6,4.9,2.1,6.3,4.4
				c1.2,2.1,1.7,4.6,1.4,7H74c0-0.7,0-1.4,0-2.1c-0.1-2.4-1.6-4.5-3.9-5.2c-2.4-0.8-5,0-6.6,2C62.1,56.5,62,59,63.2,61
				c0.9,1.4,2.3,2.3,3.9,2.7c1.5,0.3,3,0.7,4.5,1.2c3.9,1.5,6.4,5.3,6.2,9.5c-0.3,4-3,7.4-6.9,8.6c-0.2,0.1-0.4,0.1-0.8,0.2v3.9
				h-3.9v-3.8C60.1,81.5,57.9,77.6,58.6,69.9z"/>
		</g>
	</g>
</g>
</svg>
