<?xml version="1.0" encoding="utf-8"?>
<!-- Generator: Adobe Illustrator 23.0.1, SVG Export Plug-In . SVG Version: 6.00 Build 0)  -->
<svg version="1.1" id="Camada_1" xmlns="http://www.w3.org/2000/svg" xmlns:xlink="http://www.w3.org/1999/xlink" x="0px" y="0px"
	 viewBox="0 0 37.6 36.8" style="enable-background:new 0 0 37.6 36.8;" xml:space="preserve">
<style type="text/css">
	.st0{fill:#898989;}
</style>
<g>
	<path class="st0" d="M18.8,2.7c-8.6,0-15.7,2.2-15.7,4.9v3.9c0,2.7,7,4.9,15.7,4.9s15.7-2.2,15.7-4.9V7.6
		C34.5,4.9,27.5,2.7,18.8,2.7z"/>
	<path class="st0" d="M18.8,19.3c-8.7,0-15.7-2.2-15.7-4.9v5.9c0,2.7,7,4.9,15.7,4.9s15.7-2.2,15.7-4.9v-5.9
		C34.5,17.1,27.5,19.3,18.8,19.3z"/>
	<path class="st0" d="M18.8,28.2c-8.6,0-15.7-2.2-15.7-4.9v5.9c0,2.7,7,4.9,15.7,4.9s15.7-2.2,15.7-4.9v-5.9
		C34.5,26,27.5,28.2,18.8,28.2z"/>
</g>
</svg>
