<?xml version="1.0" encoding="utf-8"?>
<!-- Generator: Adobe Illustrator 23.0.1, SVG Export Plug-In . SVG Version: 6.00 Build 0)  -->
<svg version="1.1" id="Camada_1" xmlns="http://www.w3.org/2000/svg" xmlns:xlink="http://www.w3.org/1999/xlink" x="0px" y="0px"
	 viewBox="0 0 124.4 156" style="enable-background:new 0 0 124.4 156;" xml:space="preserve">
<style type="text/css">
	.st0{fill:#828282;}
</style>
<g>
	
		<image style="overflow:visible;opacity:0.75;enable-background:new    ;" width="625" height="692" xlink:href="47187CCC.png"  transform="matrix(0.2388 0 0 0.2388 -5.5198 -5.5508)">
	</image>
	<g>
		<g>
			<path class="st0" d="M25.8,99c2.9-0.8,5.6-1.8,8.4-2.4c6.5-1.3,12.8-0.1,18.6,3c3,1.6,6.1,2.4,9.5,2.5c5.2,0.1,10.3,0.2,15.5,0.5
				c4.8,0.3,8.6,2.6,11.1,6.8c0.1,0.2,0.3,0.3,0.4,0.6c3.5-1.7,7.1-3.4,10.6-5c2.6-1.2,5.2-2.5,7.8-3.6c5.1-2,10.6,0,13.5,4.7
				c0.8,1.4,0.6,2.5-1,3.5c-3.4,2.3-6.9,4.5-10.4,6.7c-8.9,5.7-17.8,11.4-26.6,17.2c-5.5,3.6-11.5,4.9-17.8,3.9
				c-5.5-0.9-10.8-2.6-16.2-4.1c-4.5-1.2-8.9-2.4-13.3-3.7c-2.6-0.8-5.1-0.5-7.4,0.9c-0.6,0.3-1.2,0.7-1.9,1c-1.3,0.6-2.1,1.3-2,2.9
				c0.1,1.3-0.9,2.1-2.3,2.1c-5.9-0.1-11.8-0.3-17.6-0.6c-1.4-0.1-2.1-1-2.1-2.8c0.1-3.3,0.2-6.5,0.3-9.8c0.3-9,0.5-18.1,0.8-27.1
				C3.8,93.5,4.3,93,7.1,93c5.1,0.1,10.3,0.3,15.4,0.4c2.8,0.1,3.3,0.7,3.3,3.5C25.7,97.6,25.8,98.3,25.8,99z M90.8,114.1
				c0.6,4.4,0,5.1-4.2,5c-7.5-0.2-15.1-0.4-22.6-0.6c-0.5,0-1,0-1.5-0.1c-1.3-0.2-2.2-0.8-2.2-2.2c0-1.3,0.9-2.1,2.4-2.2
				c0.3,0,0.7,0,1,0c7,0.2,14,0.4,20.9,0.6c0.5,0,1,0,1.6,0c-0.7-3.9-3.8-7.1-7.8-7.5c-4.1-0.4-8.2-0.6-12.3-0.5
				c-6.1,0.1-11.7-1.2-17.3-3.9c-7.5-3.7-15.1-2.8-22.3,1.3c-0.5,0.3-0.9,1-0.9,1.5c-0.3,6.8-0.4,13.6-0.6,20.3c0,0.4,0,0.7,0.1,1.3
				c0.4-0.2,0.7-0.3,1-0.4c4-2.5,8.1-2.5,12.4-1.2c8,2.4,16.1,4.6,24.2,6.8c5.9,1.6,11.8,1.3,17-2c11.9-7.4,23.7-15.2,35.4-22.9
				c0.4-0.2,0.7-0.5,1.2-0.8c-2.1-1.6-4.2-2.2-6.6-1.3c-1.4,0.5-2.7,1.1-4,1.8C100.7,109.4,95.8,111.8,90.8,114.1z M8.1,97.6
				c-0.3,11.3-0.6,22.5-0.9,34c4.4,0,8.7,0,13.1,0c0.3-11.2,0.6-22.5,1-34C16.8,97.6,12.5,97.6,8.1,97.6z"/>
			<path class="st0" d="M95.7,64.1c0,17.6-14.5,32.2-32.2,32.1c-17.7,0-32.1-14.5-32.1-32.2C31.5,46.3,46,31.9,63.8,32
				C81.4,32.1,95.7,46.5,95.7,64.1z M63.7,36.4c-15.3,0-27.7,12.4-27.8,27.7c0,15.3,12.2,27.6,27.5,27.7
				c15.2,0.1,27.7-12.2,27.8-27.4C91.3,48.9,79.1,36.5,63.7,36.4z"/>
			<path class="st0" d="M61.4,15.3c0-3.3,0-6.6,0-9.9c0-1.8,0.9-2.8,2.2-2.8s2.2,1,2.2,2.7c0,6.6,0,13.3,0,19.9
				c0,1.9-0.8,2.8-2.3,2.8c-1.4,0-2.2-1-2.2-2.9C61.4,21.8,61.4,18.5,61.4,15.3z"/>
			<path class="st0" d="M78,20.8c0-1.5,0-3.1,0-4.6c0-1.6,0.9-2.5,2.2-2.5c1.3,0,2.2,0.9,2.3,2.5c0.1,3.1,0.1,6.2,0,9.3
				c0,1.6-0.9,2.5-2.2,2.5c-1.3,0-2.2-1-2.2-2.6C78,23.8,78,22.3,78,20.8z"/>
			<path class="st0" d="M44.8,20.7c0-1.6,0-3.1,0-4.7c0-1.5,0.8-2.4,2.1-2.4c1.3-0.1,2.2,0.8,2.3,2.3c0.1,3.3,0.1,6.5,0,9.8
				c0,1.4-0.9,2.2-2.2,2.2s-2.2-0.9-2.2-2.4C44.8,24,44.8,22.3,44.8,20.7z"/>
			<path class="st0" d="M65.7,80.4c-0.1,1-0.2,1.9-0.4,2.8c-0.3,1.2-1.1,1.7-2.3,1.5c-1.1-0.1-2-0.8-1.9-1.9c0.2-2-0.8-2.7-2.3-3.5
				c-2.9-1.5-4.5-4.1-4.7-7.4c-0.1-1.6,0.6-2.6,1.9-2.8c1.4-0.2,2.3,0.6,2.5,2.3c0.5,3.2,2.7,5.1,5.5,4.8c2.5-0.3,4.5-2.4,4.6-4.8
				c0.1-2.6-1.8-4.8-4.5-5.2c-1.5-0.2-3.1-0.4-4.5-1c-3.7-1.6-5.4-4.7-5.4-8.6s1.9-6.8,5.5-8.4c1.2-0.5,1.5-1.1,1.4-2.2
				c-0.1-1.3,0.4-2.3,1.7-2.7c1.5-0.4,2.8,0.7,2.7,2.5c0,1.3,0.5,1.8,1.6,2.2c3.4,1.2,5.8,4.8,5.8,8.2c0,1.6-0.7,2.6-2,2.6
				c-1.2,0.1-2.1-0.8-2.3-2.3c-0.7-4.4-4.8-6.3-8-3.9c-1.7,1.3-2.4,3.3-1.8,5.4c0.5,1.8,2.2,3.3,4.1,3.6c1.5,0.3,3.2,0.3,4.5,0.9
				c3.7,1.6,5.9,5.3,5.6,9.1c-0.3,4.3-2.7,7-6.6,8.5C66.2,80.3,65.9,80.4,65.7,80.4z"/>
		</g>
	</g>
</g>
</svg>
